<?xml version="1.0" encoding="UTF-8"?>
<!DOCTYPE svg PUBLIC "-//W3C//DTD SVG 1.1//EN" "http://www.w3.org/Graphics/SVG/1.1/DTD/svg11.dtd">
<!-- Creator: CorelDRAW 2019 (64 Bit) -->
<svg xmlns="http://www.w3.org/2000/svg" xml:space="preserve" width="95.389mm" height="25.5986mm" version="1.1" style="shape-rendering:geometricPrecision; text-rendering:geometricPrecision; image-rendering:optimizeQuality; fill-rule:evenodd; clip-rule:evenodd"
viewBox="0 0 4157.26 1115.64"
 xmlns:xlink="http://www.w3.org/1999/xlink">
 <defs>
  <style type="text/css">
   <![CDATA[
    .fil1 {fill:#FEFEFE}
    .fil0 {fill:#F58634}
    .fil2 {fill:#FEFEFE;fill-rule:nonzero}
   ]]>
  </style>
 </defs>
 <g id="Camada_x0020_1">
  <metadata id="CorelCorpID_0Corel-Layer"/>
  <g id="_2578855727120">
   <path class="fil0" d="M256.66 49.66c-13.74,7.84 -33.5,19.64 -51.45,31.45 -17.96,11.81 -34.1,23.62 -48.44,35.91 -14.34,12.29 -26.87,25.06 -37.72,37.48 -10.84,12.41 -20,24.46 -27.71,34.7 -7.71,10.24 -13.98,18.68 -20.73,29.52 -6.75,10.84 -13.98,24.1 -20.48,37.48 -6.51,13.38 -12.29,26.87 -18.68,43.74 -6.38,16.87 -13.38,37.11 -18.2,55.91 -4.82,18.8 -7.47,36.15 -9.4,53.51 -1.93,17.35 -3.13,34.7 -3.61,51.09 -0.48,16.39 -0.24,31.82 1.09,48.44 1.32,16.63 3.73,34.46 6.62,50.61 2.89,16.15 6.27,30.61 10.85,48.08 4.58,17.47 10.36,37.96 16.26,56.03 5.91,18.08 11.93,33.74 19.28,49.53 7.35,15.79 16.03,31.69 25.31,46.88 9.28,15.18 19.16,29.64 30.85,45.19 11.69,15.55 25.19,32.17 38.8,47.12 13.62,14.94 27.36,28.2 42.42,41.57 15.06,13.38 31.45,26.87 48.68,39.64 17.23,12.77 35.31,24.82 84.48,54.95 49.17,30.12 129.42,78.33 169.55,102.54 40.13,24.22 40.13,24.46 40.13,24.58 0,0.12 0,0.12 0.12,-41.33 0.12,-41.45 0.36,-124.36 0.48,-165.81 0.12,-41.45 0.12,-41.45 0.12,-41.45 0,0 0,0 13.62,-1.93 13.62,-1.93 40.85,-5.78 63.99,-10.24 23.14,-4.46 42.18,-9.52 63.75,-18.2 21.57,-8.68 45.67,-20.97 66.4,-32.9 20.73,-11.93 38.08,-23.5 54.83,-36.87 16.75,-13.38 32.9,-28.56 46.27,-43.38 13.38,-14.82 23.98,-29.28 33.86,-44.46 9.88,-15.18 19.04,-31.09 26.14,-47 7.11,-15.91 12.17,-31.81 16.39,-46.88 4.22,-15.06 7.59,-29.28 10.36,-43.02 2.77,-13.74 4.94,-26.99 5.91,-41.09 0.96,-14.1 0.72,-29.04 0,-45.67 -0.72,-16.63 -1.93,-34.95 -4.34,-53.51 -2.41,-18.56 -6.02,-37.35 -10.97,-56.15 -4.94,-18.8 -11.2,-37.6 -19.52,-57 -8.32,-19.4 -18.68,-39.4 -31.45,-60.13 -12.77,-20.72 -27.95,-42.17 -42.78,-60.25 -14.82,-18.07 -29.28,-32.77 -46.04,-47.6 -16.75,-14.82 -35.79,-29.77 -52.78,-41.82 -16.99,-12.05 -31.93,-21.21 -48.56,-29.88 -16.63,-8.67 -34.94,-16.87 -52.3,-23.26 -17.35,-6.39 -33.74,-10.97 -51.09,-14.82 -17.35,-3.86 -35.67,-6.99 -54.35,-8.8 -18.68,-1.8 -37.72,-2.29 -58.44,-2.17 -20.73,0.12 -43.14,0.84 -63.63,3.5 -20.49,2.65 -39.05,7.23 -57.84,12.65 -18.8,5.42 -37.84,11.69 -51.21,16.75 -13.38,5.06 -21.09,8.92 -34.83,16.75zm51.21 121.59c-15.3,8.68 -32.42,19.28 -47.72,31.21 -15.31,11.93 -28.8,25.19 -40.01,37.24 -11.2,12.05 -20.12,22.89 -28.32,34.46 -8.2,11.57 -15.67,23.86 -21.57,34.82 -5.91,10.97 -10.24,20.61 -15.3,33.99 -5.06,13.38 -10.85,30.49 -15.06,46.39 -4.22,15.91 -6.87,30.61 -8.2,46.15 -1.32,15.54 -1.32,31.93 -0.72,47.96 0.6,16.03 1.8,31.69 4.09,48.2 2.29,16.51 5.67,33.86 9.76,49.4 4.1,15.55 8.92,29.28 14.58,43.87 5.66,14.58 12.17,30.01 19.4,44.71 7.23,14.7 15.18,28.68 25.19,43.38 10,14.7 22.05,30.12 37.48,46.87 15.43,16.75 34.23,34.83 51.82,49.89 17.59,15.07 33.98,27.11 52.05,38.68 18.08,11.57 37.84,22.65 47.72,28.2 9.88,5.54 9.88,5.54 9.88,5.54 0,0 0,0 0.24,-23.74 0.24,-23.74 0.72,-71.22 0.96,-94.96 0.24,-23.74 0.24,-23.74 0.24,-23.74 0,0 0,0 6.39,0.24 6.38,0.24 19.16,0.72 33.14,0.96 13.98,0.24 29.16,0.24 46.15,-0.6 16.99,-0.84 35.79,-2.53 55.43,-5.66 19.64,-3.13 40.13,-7.71 57.24,-12.17 17.11,-4.46 30.85,-8.79 43.5,-13.98 12.66,-5.18 24.22,-11.21 36.64,-18.56 12.41,-7.35 25.67,-16.03 36.03,-24.35 10.36,-8.32 17.83,-16.26 25.79,-25.18 7.95,-8.92 16.39,-18.8 23.5,-29.17 7.11,-10.36 12.89,-21.21 17.71,-31.81 4.82,-10.6 8.68,-20.97 11.81,-32.42 3.13,-11.44 5.54,-23.98 7.11,-36.51 1.57,-12.53 2.29,-25.06 2.29,-39.65 0,-14.58 -0.72,-31.21 -3.02,-48.68 -2.29,-17.47 -6.15,-35.79 -11.2,-53.38 -5.06,-17.59 -11.33,-34.46 -17.96,-48.68 -6.63,-14.22 -13.62,-25.79 -21.57,-37.6 -7.95,-11.81 -16.87,-23.86 -26.39,-34.94 -9.52,-11.09 -19.64,-21.21 -29.04,-29.77 -9.4,-8.56 -18.07,-15.54 -29.04,-23.38 -10.97,-7.83 -24.22,-16.51 -36.27,-23.38 -12.05,-6.87 -22.9,-11.93 -37,-17.23 -14.1,-5.3 -31.45,-10.84 -46.39,-14.94 -14.94,-4.1 -27.47,-6.75 -41.57,-8.32 -14.1,-1.56 -29.76,-2.05 -45.79,-1.56 -16.03,0.48 -32.41,1.93 -51.09,5.42 -18.68,3.5 -39.65,9.04 -56.88,15.18 -17.23,6.15 -30.73,12.89 -46.03,21.57z"/>
   <circle class="fil1" cx="304.26" cy="460.7" r="53.86"/>
   <circle class="fil1" cx="469.47" cy="460.7" r="53.86"/>
   <circle class="fil1" cx="634.68" cy="460.7" r="53.86"/>
  </g>
  <path class="fil2" d="M1263.31 771.86l0 -123.09 63.94 0c50.64,0 94.91,-15.72 128.8,-46.52 32.2,-30.42 48.67,-68.42 48.67,-112.61 0,-43.9 -16.47,-82.09 -48.67,-113.07 -33.14,-30.99 -76.38,-46.71 -126.28,-46.71l-174.19 0 -0.1 442 107.83 0zm129.27 -282.22c0,30.33 -30.98,52.23 -62.81,52.23l-62.06 -0.19 0 -104.56 62.24 0c31.54,0 62.62,22.09 62.62,52.51zm269.02 67.49l28.27 59.81 -56.91 0 28.64 -59.81zm-109.23 214.73l32.85 -66.92 152.29 0 32.76 66.92 117.29 0 -213.42 -441.25 -25.55 0 -213.23 441.25 117.01 0zm481.5 0l0 -172.7 131.7 172.7 131.23 0 -106.15 -158.57c20.69,-9.36 32.48,-19 46.52,-37.91 19.66,-26.59 29.76,-55.51 29.76,-86.02l0 -11.04c0,-49.61 -17.69,-75.92 -45.58,-102.68 -16.38,-15.45 -35.29,-26.96 -56.91,-34.54 -24.9,-7.49 -50.73,-11.24 -77.13,-11.24l-161.56 0 0.28 442 107.83 0zm63.46 -231.67l-23.59 0 0 -0.28 -40.16 0 0 -102.78 47.27 0c20.22,0 44.93,5.24 56.44,14.7 11.7,10.49 17.32,22.09 17.32,35.66 0,30.52 -27.61,52.7 -57.28,52.7zm210.8 -103.06l112.98 0 1.12 334.73 121.87 0 -3.93 -334.73 112.69 0 0 -107.27 -344.74 0 0 107.27zm491.14 334.73l0 -442 -107.83 0 0 442 107.83 0zm297.47 -445.37l-13.2 0c-68.33,0 -127.68,22.18 -176.73,65.99 -45.68,43.9 -68.7,97.16 -68.7,158.47 0,61.5 23.02,114.66 68.8,158.38 48.58,43.25 107.92,65.15 176.63,65.33 34.82,0 67.3,-5.99 97.44,-18.06 29.67,-12.36 54.67,-29.02 75.82,-49.98l6.83 -6.83 -77.59 -76.85 -7.3 6.74c-26.39,24.62 -57.47,36.6 -94.91,36.6 -37.16,0 -68.14,-10.95 -94.26,-33.51 -26.39,-22.75 -39.31,-49.51 -39.31,-81.52 0,-31.64 12.92,-58.41 39.31,-81.53 26.02,-22.65 56.91,-33.7 94.26,-33.7 36.79,0 67.86,11.98 94.73,36.6l7.21 6.74 77.69 -76.85 -7.02 -6.83c-37.44,-35.94 -91.83,-64.59 -160.06,-67.77l0.37 -1.4zm312.92 445.37l0 -442 -107.83 0 0 442 107.83 0zm162.87 0l0 -123.09 63.94 0c50.64,0 94.91,-15.72 128.8,-46.52 32.2,-30.42 48.67,-68.42 48.67,-112.61 0,-43.9 -16.47,-82.09 -48.67,-113.07 -33.14,-30.99 -76.38,-46.71 -126.28,-46.71l-174.19 0 -0.1 442 107.83 0zm129.27 -282.22c0,30.33 -30.98,52.23 -62.81,52.23l-62.06 -0.19 0 -104.56 62.24 0c31.54,0 62.62,22.09 62.62,52.51zm150.52 282.78l304.96 0 0 -107.27 -191.7 0 0 -60.66 147.33 0 0 -107.83 -147.33 0 0 -60.09 191.7 0 0 -107.83 -304.96 0 0 443.68z"/>
 </g>
</svg>
