<?xml version="1.0" encoding="UTF-8"?>
<!DOCTYPE svg PUBLIC "-//W3C//DTD SVG 1.1//EN" "http://www.w3.org/Graphics/SVG/1.1/DTD/svg11.dtd">
<!-- Creator: CorelDRAW 2019 (64 Bit) -->
<svg xmlns="http://www.w3.org/2000/svg" xml:space="preserve" width="23.8305mm" height="15.9411mm" version="1.1" style="shape-rendering:geometricPrecision; text-rendering:geometricPrecision; image-rendering:optimizeQuality; fill-rule:evenodd; clip-rule:evenodd"
viewBox="0 0 376.02 251.53"
 xmlns:xlink="http://www.w3.org/1999/xlink"
 xmlns:xodm="http://www.corel.com/coreldraw/odm/2003">
 <defs>
  <style type="text/css">
   <![CDATA[
    .fil0 {fill:#373435}
   ]]>
  </style>
 </defs>
 <g id="Camada_x0020_1">
  <metadata id="CorelCorpID_0Corel-Layer"/>
  <path class="fil0" d="M14.6 0l78.32 0c8.03,0 14.59,6.57 14.59,14.6l0 77.36c0,8.03 -6.57,14.6 -14.59,14.6l-78.32 0c-8.03,0 -14.6,-6.57 -14.6,-14.6l0 -77.36c0,-8.03 6.57,-14.6 14.6,-14.6zm268.51 144.99l78.32 0c8.03,0 14.59,6.57 14.59,14.59l0 77.36c0,8.03 -6.57,14.6 -14.59,14.6l-78.32 0c-8.03,0 -14.59,-6.57 -14.59,-14.6l0 -77.36c0,-8.03 6.57,-14.59 14.59,-14.59zm11.06 15.05l56.19 0c5.76,0 10.47,4.71 10.47,10.47l0 55.5c0,5.76 -4.71,10.47 -10.47,10.47l-56.19 0c-5.76,0 -10.47,-4.71 -10.47,-10.47l0 -55.5c0,-5.76 4.71,-10.47 10.47,-10.47zm-11.06 -160.04l78.32 0c8.03,0 14.59,6.57 14.59,14.6l0 77.36c0,8.03 -6.57,14.6 -14.59,14.6l-78.32 0c-8.03,0 -14.59,-6.57 -14.59,-14.6l0 -77.36c0,-8.03 6.57,-14.6 14.59,-14.6zm11.06 15.05l56.19 0c5.76,0 10.47,4.71 10.47,10.47l0 55.5c0,5.76 -4.71,10.47 -10.47,10.47l-56.19 0c-5.76,0 -10.47,-4.71 -10.47,-10.47l0 -55.5c0,-5.76 4.71,-10.47 10.47,-10.47zm-145.32 129.94l78.32 0c8.03,0 14.6,6.57 14.6,14.59l0 77.36c0,8.03 -6.57,14.6 -14.6,14.6l-78.32 0c-8.03,0 -14.6,-6.57 -14.6,-14.6l0 -77.36c0,-8.03 6.57,-14.59 14.6,-14.59zm11.06 15.05l56.19 0c5.76,0 10.47,4.71 10.47,10.47l0 55.5c0,5.76 -4.71,10.47 -10.47,10.47l-56.19 0c-5.76,0 -10.47,-4.71 -10.47,-10.47l0 -55.5c0,-5.76 4.71,-10.47 10.47,-10.47zm-11.06 -160.04l78.32 0c8.03,0 14.6,6.57 14.6,14.6l0 77.36c0,8.03 -6.57,14.6 -14.6,14.6l-78.32 0c-8.03,0 -14.6,-6.57 -14.6,-14.6l0 -77.36c0,-8.03 6.57,-14.6 14.6,-14.6zm11.06 15.05l56.19 0c5.76,0 10.47,4.71 10.47,10.47l0 55.5c0,5.76 -4.71,10.47 -10.47,10.47l-56.19 0c-5.76,0 -10.47,-4.71 -10.47,-10.47l0 -55.5c0,-5.76 4.71,-10.47 10.47,-10.47zm-145.32 129.94l78.32 0c8.03,0 14.59,6.57 14.59,14.59l0 77.36c0,8.03 -6.57,14.6 -14.59,14.6l-78.32 0c-8.03,0 -14.6,-6.57 -14.6,-14.6l0 -77.36c0,-8.03 6.57,-14.59 14.6,-14.59zm11.06 15.05l56.19 0c5.76,0 10.47,4.71 10.47,10.47l0 55.5c0,5.76 -4.71,10.47 -10.47,10.47l-56.19 0c-5.76,0 -10.47,-4.71 -10.47,-10.47l0 -55.5c0,-5.76 4.71,-10.47 10.47,-10.47zm0 -144.99l56.19 0c5.76,0 10.47,4.71 10.47,10.47l0 55.5c0,5.76 -4.71,10.47 -10.47,10.47l-56.19 0c-5.76,0 -10.47,-4.71 -10.47,-10.47l0 -55.5c0,-5.76 4.71,-10.47 10.47,-10.47z"/>
 </g>
</svg>
