<?xml version="1.0" encoding="UTF-8" standalone="no"?>
<svg
   xmlns:dc="http://purl.org/dc/elements/1.1/"
   xmlns:cc="http://creativecommons.org/ns#"
   xmlns:rdf="http://www.w3.org/1999/02/22-rdf-syntax-ns#"
   xmlns:svg="http://www.w3.org/2000/svg"
   xmlns="http://www.w3.org/2000/svg"
   xmlns:xlink="http://www.w3.org/1999/xlink"
   xmlns:sodipodi="http://sodipodi.sourceforge.net/DTD/sodipodi-0.dtd"
   xmlns:inkscape="http://www.inkscape.org/namespaces/inkscape"
   xml:space="preserve"
   width="23.8305mm"
   height="15.9411mm"
   version="1.1"
   style="shape-rendering:geometricPrecision; text-rendering:geometricPrecision; image-rendering:optimizeQuality; fill-rule:evenodd; clip-rule:evenodd"
   viewBox="0 0 376.02 251.53"
   id="svg10"
   sodipodi:docname="area-estrategica-gradient.svg"
   inkscape:version="1.0.1 (3bc2e813f5, 2020-09-07)"><metadata
   id="metadata14"><rdf:RDF><cc:Work
       rdf:about=""><dc:format>image/svg+xml</dc:format><dc:type
         rdf:resource="http://purl.org/dc/dcmitype/StillImage" /><dc:title></dc:title></cc:Work></rdf:RDF></metadata><sodipodi:namedview
   pagecolor="#ffffff"
   bordercolor="#666666"
   borderopacity="1"
   objecttolerance="10"
   gridtolerance="10"
   guidetolerance="10"
   inkscape:pageopacity="0"
   inkscape:pageshadow="2"
   inkscape:window-width="1440"
   inkscape:window-height="837"
   id="namedview12"
   showgrid="false"
   inkscape:zoom="5.211633"
   inkscape:cx="18.862765"
   inkscape:cy="28.834088"
   inkscape:window-x="-8"
   inkscape:window-y="-8"
   inkscape:window-maximized="1"
   inkscape:current-layer="svg10"
   inkscape:document-rotation="0" />
 <defs
   id="defs4"><linearGradient
   inkscape:collect="always"
   id="linearGradient857"><stop
     style="stop-color:#e05723;stop-opacity:1;"
     offset="0"
     id="stop853" /><stop
     style="stop-color:#e05723;stop-opacity:0;"
     offset="1"
     id="stop855" /></linearGradient>
  <style
   type="text/css"
   id="style2">
   <![CDATA[
    .fil0 {fill:#373435}
   ]]>
  </style>
 <linearGradient
   inkscape:collect="always"
   xlink:href="#linearGradient857"
   id="linearGradient859"
   x1="-0.01"
   y1="125.77"
   x2="376.02"
   y2="125.77"
   gradientUnits="userSpaceOnUse" /></defs>
 <g
   id="Camada_x0020_1"
   style="fill:#e08333;fill-opacity:1">
  <metadata
   id="CorelCorpID_0Corel-Layer" />
  <path
   class="fil0"
   d="M14.6 0l78.32 0c8.03,0 14.59,6.57 14.59,14.6l0 77.36c0,8.03 -6.57,14.6 -14.59,14.6l-78.32 0c-8.03,0 -14.6,-6.57 -14.6,-14.6l0 -77.36c0,-8.03 6.57,-14.6 14.6,-14.6zm268.51 144.99l78.32 0c8.03,0 14.59,6.57 14.59,14.59l0 77.36c0,8.03 -6.57,14.6 -14.59,14.6l-78.32 0c-8.03,0 -14.59,-6.57 -14.59,-14.6l0 -77.36c0,-8.03 6.57,-14.59 14.59,-14.59zm11.06 15.05l56.19 0c5.76,0 10.47,4.71 10.47,10.47l0 55.5c0,5.76 -4.71,10.47 -10.47,10.47l-56.19 0c-5.76,0 -10.47,-4.71 -10.47,-10.47l0 -55.5c0,-5.76 4.71,-10.47 10.47,-10.47zm-11.06 -160.04l78.32 0c8.03,0 14.59,6.57 14.59,14.6l0 77.36c0,8.03 -6.57,14.6 -14.59,14.6l-78.32 0c-8.03,0 -14.59,-6.57 -14.59,-14.6l0 -77.36c0,-8.03 6.57,-14.6 14.59,-14.6zm11.06 15.05l56.19 0c5.76,0 10.47,4.71 10.47,10.47l0 55.5c0,5.76 -4.71,10.47 -10.47,10.47l-56.19 0c-5.76,0 -10.47,-4.71 -10.47,-10.47l0 -55.5c0,-5.76 4.71,-10.47 10.47,-10.47zm-145.32 129.94l78.32 0c8.03,0 14.6,6.57 14.6,14.59l0 77.36c0,8.03 -6.57,14.6 -14.6,14.6l-78.32 0c-8.03,0 -14.6,-6.57 -14.6,-14.6l0 -77.36c0,-8.03 6.57,-14.59 14.6,-14.59zm11.06 15.05l56.19 0c5.76,0 10.47,4.71 10.47,10.47l0 55.5c0,5.76 -4.71,10.47 -10.47,10.47l-56.19 0c-5.76,0 -10.47,-4.71 -10.47,-10.47l0 -55.5c0,-5.76 4.71,-10.47 10.47,-10.47zm-11.06 -160.04l78.32 0c8.03,0 14.6,6.57 14.6,14.6l0 77.36c0,8.03 -6.57,14.6 -14.6,14.6l-78.32 0c-8.03,0 -14.6,-6.57 -14.6,-14.6l0 -77.36c0,-8.03 6.57,-14.6 14.6,-14.6zm11.06 15.05l56.19 0c5.76,0 10.47,4.71 10.47,10.47l0 55.5c0,5.76 -4.71,10.47 -10.47,10.47l-56.19 0c-5.76,0 -10.47,-4.71 -10.47,-10.47l0 -55.5c0,-5.76 4.71,-10.47 10.47,-10.47zm-145.32 129.94l78.32 0c8.03,0 14.59,6.57 14.59,14.59l0 77.36c0,8.03 -6.57,14.6 -14.59,14.6l-78.32 0c-8.03,0 -14.6,-6.57 -14.6,-14.6l0 -77.36c0,-8.03 6.57,-14.59 14.6,-14.59zm11.06 15.05l56.19 0c5.76,0 10.47,4.71 10.47,10.47l0 55.5c0,5.76 -4.71,10.47 -10.47,10.47l-56.19 0c-5.76,0 -10.47,-4.71 -10.47,-10.47l0 -55.5c0,-5.76 4.71,-10.47 10.47,-10.47zm0 -144.99l56.19 0c5.76,0 10.47,4.71 10.47,10.47l0 55.5c0,5.76 -4.71,10.47 -10.47,10.47l-56.19 0c-5.76,0 -10.47,-4.71 -10.47,-10.47l0 -55.5c0,-5.76 4.71,-10.47 10.47,-10.47z"
   id="path7"
   style="fill:#e08333;fill-opacity:1" />
 </g>
<g
   id="g851"
   style="fill:url(#linearGradient859);fill-opacity:1">
  <metadata
   id="metadata847"
   style="fill-opacity:1;fill:url(#linearGradient859)" />
  <path
   class="fil0"
   d="M14.6 0l78.32 0c8.03,0 14.59,6.57 14.59,14.6l0 77.36c0,8.03 -6.57,14.6 -14.59,14.6l-78.32 0c-8.03,0 -14.6,-6.57 -14.6,-14.6l0 -77.36c0,-8.03 6.57,-14.6 14.6,-14.6zm268.51 144.99l78.32 0c8.03,0 14.59,6.57 14.59,14.59l0 77.36c0,8.03 -6.57,14.6 -14.59,14.6l-78.32 0c-8.03,0 -14.59,-6.57 -14.59,-14.6l0 -77.36c0,-8.03 6.57,-14.59 14.59,-14.59zm11.06 15.05l56.19 0c5.76,0 10.47,4.71 10.47,10.47l0 55.5c0,5.76 -4.71,10.47 -10.47,10.47l-56.19 0c-5.76,0 -10.47,-4.71 -10.47,-10.47l0 -55.5c0,-5.76 4.71,-10.47 10.47,-10.47zm-11.06 -160.04l78.32 0c8.03,0 14.59,6.57 14.59,14.6l0 77.36c0,8.03 -6.57,14.6 -14.59,14.6l-78.32 0c-8.03,0 -14.59,-6.57 -14.59,-14.6l0 -77.36c0,-8.03 6.57,-14.6 14.59,-14.6zm11.06 15.05l56.19 0c5.76,0 10.47,4.71 10.47,10.47l0 55.5c0,5.76 -4.71,10.47 -10.47,10.47l-56.19 0c-5.76,0 -10.47,-4.71 -10.47,-10.47l0 -55.5c0,-5.76 4.71,-10.47 10.47,-10.47zm-145.32 129.94l78.32 0c8.03,0 14.6,6.57 14.6,14.59l0 77.36c0,8.03 -6.57,14.6 -14.6,14.6l-78.32 0c-8.03,0 -14.6,-6.57 -14.6,-14.6l0 -77.36c0,-8.03 6.57,-14.59 14.6,-14.59zm11.06 15.05l56.19 0c5.76,0 10.47,4.71 10.47,10.47l0 55.5c0,5.76 -4.71,10.47 -10.47,10.47l-56.19 0c-5.76,0 -10.47,-4.71 -10.47,-10.47l0 -55.5c0,-5.76 4.71,-10.47 10.47,-10.47zm-11.06 -160.04l78.32 0c8.03,0 14.6,6.57 14.6,14.6l0 77.36c0,8.03 -6.57,14.6 -14.6,14.6l-78.32 0c-8.03,0 -14.6,-6.57 -14.6,-14.6l0 -77.36c0,-8.03 6.57,-14.6 14.6,-14.6zm11.06 15.05l56.19 0c5.76,0 10.47,4.71 10.47,10.47l0 55.5c0,5.76 -4.71,10.47 -10.47,10.47l-56.19 0c-5.76,0 -10.47,-4.71 -10.47,-10.47l0 -55.5c0,-5.76 4.71,-10.47 10.47,-10.47zm-145.32 129.94l78.32 0c8.03,0 14.59,6.57 14.59,14.59l0 77.36c0,8.03 -6.57,14.6 -14.59,14.6l-78.32 0c-8.03,0 -14.6,-6.57 -14.6,-14.6l0 -77.36c0,-8.03 6.57,-14.59 14.6,-14.59zm11.06 15.05l56.19 0c5.76,0 10.47,4.71 10.47,10.47l0 55.5c0,5.76 -4.71,10.47 -10.47,10.47l-56.19 0c-5.76,0 -10.47,-4.71 -10.47,-10.47l0 -55.5c0,-5.76 4.71,-10.47 10.47,-10.47zm0 -144.99l56.19 0c5.76,0 10.47,4.71 10.47,10.47l0 55.5c0,5.76 -4.71,10.47 -10.47,10.47l-56.19 0c-5.76,0 -10.47,-4.71 -10.47,-10.47l0 -55.5c0,-5.76 4.71,-10.47 10.47,-10.47z"
   id="path849"
   style="fill:url(#linearGradient859);fill-opacity:1" />
 </g></svg>
