<?xml version="1.0" encoding="UTF-8"?>
<!DOCTYPE svg PUBLIC "-//W3C//DTD SVG 1.1//EN" "http://www.w3.org/Graphics/SVG/1.1/DTD/svg11.dtd">
<!-- Creator: CorelDRAW 2020 (64 Bit) -->
<svg xmlns="http://www.w3.org/2000/svg" xml:space="preserve" width="33.6802mm" height="38.4145mm" version="1.1" style="shape-rendering:geometricPrecision; text-rendering:geometricPrecision; image-rendering:optimizeQuality; fill-rule:evenodd; clip-rule:evenodd"
viewBox="0 0 295.15 336.64"
 xmlns:xlink="http://www.w3.org/1999/xlink"
 xmlns:xodm="http://www.corel.com/coreldraw/odm/2003">
 <defs>
  <style type="text/css">
   <![CDATA[
    .fil0 {fill:url(#id0)}
   ]]>
  </style>
  <linearGradient id="id0" gradientUnits="userSpaceOnUse" x1="269.54" y1="265.53" x2="25.61" y2="71.11">
   <stop offset="0" style="stop-opacity:1; stop-color:#00a198"/>
   <stop offset="0.509804" style="stop-opacity:1; stop-color:#00a198"/>
   <stop offset="1" style="stop-opacity:1; stop-color:#00a198"/>
  </linearGradient>
 </defs>
 <g id="Camada_x0020_1">
  <metadata id="CorelCorpID_0Corel-Layer"/>
  <path class="fil0" d="M273.41 305.86c-1.28,11.49 -13.67,9.42 -24.66,9.42l-201.69 0c-11.11,0 -24.05,2.24 -25.35,-9.42l-0.04 -179.59 251.78 0 -0.04 179.59zm-204.55 -74.23c-6.13,1.94 -5.34,8.74 -5.34,15.39 0.02,24.5 -2.53,26.25 15.78,26.24 23.88,-0.02 26.25,2.7 26.24,-15.95 -0.02,-24.62 2.62,-26.07 -15.95,-26.07 -4.62,0 -17.34,-0.68 -20.73,0.39zm126.5 -63c-6.93,2.21 -5.79,7.89 -5.78,15.27 0.02,24.66 -2.6,26.25 15.95,26.24 25.17,-0.02 26.08,2.48 26.07,-15.95 -0.02,-23.73 2.78,-26.09 -15.78,-26.07 -4.71,0.01 -16.86,-0.64 -20.46,0.51zm-126.18 0.03c-6.92,2.42 -5.67,7.54 -5.66,15.24 0,4.27 -0.52,17.67 0.39,20.9 1.71,6.08 8.84,5.34 15.38,5.34 25.07,-0.02 26.25,2.38 26.24,-15.95 -0.02,-24.16 2.64,-26.08 -15.95,-26.07 -4.65,0 -16.91,-0.68 -20.41,0.54zm125.86 62.93c-6.12,1.95 -5.46,8.55 -5.46,15.42 0,4.26 -0.53,17.8 0.52,20.93 1.99,5.96 8.66,5.31 15.43,5.31 4.27,-0 17.83,0.56 20.95,-0.51 5.89,-2.02 5.13,-8.89 5.12,-15.44 -0.02,-24.76 2.58,-26.07 -15.78,-26.07 -4.5,0 -17.53,-0.68 -20.78,0.36zm-62.75 -62.93c-7.14,2.51 -5.83,7.41 -5.83,15.24 0.02,24.2 -2.74,26.25 15.95,26.24 24.16,-0.02 26.25,2.75 26.24,-15.95 -0.02,-23.98 2.7,-26.09 -15.95,-26.07 -4.65,0.01 -16.92,-0.68 -20.41,0.54zm-0.32 62.97c-6.22,1.97 -5.51,8.6 -5.51,15.39 0.02,23.91 -2.74,26.25 15.95,26.24 23.82,-0.02 26.25,2.81 26.24,-15.95 -0.02,-24.5 2.65,-26.07 -15.95,-26.07 -4.62,0 -17.34,-0.68 -20.73,0.39zm-110.47 -156.12c0,-8.53 4.07,-12.35 12.52,-12.35l227.08 0c8.45,0 12.52,3.81 12.52,12.35l0 29.67 -252.12 0 0 -29.67zm42.02 -33.44c-20.51,0 -40.92,-3.34 -53.49,8.75 -13.04,12.54 -9.62,32.05 -9.62,53.5l0 189.34c0,10.6 -0.8,18.58 4.42,27.14 3.46,5.68 9.16,11.51 17.6,13.96 10.3,3 48.3,1.43 61.68,1.43 42.08,0 84.15,0 126.23,0 13.71,0 51.09,1.61 61.84,-1.28 8.56,-2.3 14.34,-8.12 17.86,-13.69 5.39,-8.52 4.68,-16.26 4.68,-26.87l0 -189.34c0,-21.98 3.52,-40.69 -9.28,-53.85 -12.03,-12.36 -33.94,-9.1 -53.84,-9.1 0,-8.75 -0.01,-17.49 0,-26.24 0.01,-9.88 0.78,-15.76 -10.29,-15.82 -11.58,-0.06 -10.64,5.39 -10.63,15.82 0.01,8.63 0,17.27 0,25.9l-126.23 0.33c0,-8.97 -0.01,-17.6 0,-26.24 0.01,-10.44 0.95,-15.89 -10.64,-15.82 -11.1,0.06 -10.29,6.07 -10.28,15.82 0.01,8.75 0,17.49 0,26.24z"/>
 </g>
</svg>
