<?xml version="1.0" encoding="UTF-8" standalone="no"?>
<svg
   xmlns:dc="http://purl.org/dc/elements/1.1/"
   xmlns:cc="http://creativecommons.org/ns#"
   xmlns:rdf="http://www.w3.org/1999/02/22-rdf-syntax-ns#"
   xmlns:svg="http://www.w3.org/2000/svg"
   xmlns="http://www.w3.org/2000/svg"
   xmlns:sodipodi="http://sodipodi.sourceforge.net/DTD/sodipodi-0.dtd"
   xmlns:inkscape="http://www.inkscape.org/namespaces/inkscape"
   version="1.1"
   id="svg833"
   width="221.75999"
   height="263.67999"
   viewBox="0 0 221.75999 263.67999"
   sodipodi:docname="check-circle2.svg"
   inkscape:version="1.0.1 (3bc2e813f5, 2020-09-07)">
  <metadata
     id="metadata839">
    <rdf:RDF>
      <cc:Work
         rdf:about="">
        <dc:format>image/svg+xml</dc:format>
        <dc:type
           rdf:resource="http://purl.org/dc/dcmitype/StillImage" />
        <dc:title></dc:title>
      </cc:Work>
    </rdf:RDF>
  </metadata>
  <defs
     id="defs837" />
  <sodipodi:namedview
     pagecolor="#ffffff"
     bordercolor="#666666"
     borderopacity="1"
     objecttolerance="10"
     gridtolerance="10"
     guidetolerance="10"
     inkscape:pageopacity="0"
     inkscape:pageshadow="2"
     inkscape:window-width="1440"
     inkscape:window-height="837"
     id="namedview835"
     showgrid="false"
     inkscape:zoom="1.1908374"
     inkscape:cx="140.77409"
     inkscape:cy="120.87662"
     inkscape:window-x="-8"
     inkscape:window-y="-8"
     inkscape:window-maximized="1"
     inkscape:current-layer="layer2"
     inkscape:document-rotation="0" />
  <g
     inkscape:groupmode="layer"
     id="layer1"
     inkscape:label="fundo" />
  <g
     inkscape:groupmode="layer"
     inkscape:label="Image"
     id="g841" />
  <g
     inkscape:groupmode="layer"
     id="layer2"
     inkscape:label="minhaCamada"
     style="display:inline">
    <g
       id="Camada_x0020_1-4"
       style="clip-rule:evenodd;fill:#ffffff;fill-rule:evenodd;image-rendering:optimizeQuality;shape-rendering:geometricPrecision;text-rendering:geometricPrecision"
       transform="matrix(0.21702072,0,0,0.21702072,0.96081737,20.768797)">
      <metadata
         id="CorelCorpID_0Corel-Layer-3" />
      <g
         id="_2247623468256"
         style="fill:#ffffff">
        <path
           class="fil0"
           d="M 99.39,548.66 C 76.81,310.12 254.31,120.38 467.4,99.86 c 87.52,-8.43 176.64,12 249.21,55.46 39.56,23.7 82.17,58.66 109.12,94.38 90.56,120.07 117.16,251.22 67.28,397.49 C 843.33,792.85 702.68,901.14 547.55,916.07 310.05,938.94 119.47,760.73 99.39,548.65 Z M 465.31,1.9 C 352.67,11.23 275.36,47.85 192.3,109.25 c -25.1,18.56 -44.7,40.43 -66.11,62.35 -8.6,8.8 -19.43,23.53 -27.62,34.54 -8.7,11.69 -17.73,25.34 -25.82,38.4 -92.81,149.76 -96.06,346.08 -14.09,502.3 15.36,29.26 32.41,52.36 50.1,76.29 24.5,33.14 62.81,68.42 96.89,93.73 11.72,8.7 25.33,17.72 38.4,25.82 24.82,15.38 54.46,30.87 85.05,41.31 142.48,48.61 282.88,43.28 417.25,-27.23 29.24,-15.34 52.39,-32.42 76.3,-50.1 30.96,-22.89 70.08,-65.09 93.72,-96.9 8.7,-11.7 17.73,-25.35 25.82,-38.4 92.81,-149.76 96.06,-346.08 14.09,-502.3 -15.34,-29.24 -32.42,-52.39 -50.1,-76.3 C 883.25,161.74 841.14,122.7 809.28,99.04 774.54,73.24 728.11,46.34 685.83,31.91 612.61,6.93 547.65,-4.94 465.3,1.88 Z"
           id="path7-8"
           style="fill:#ffffff" />
        <path
           class="fil0"
           d="m 423.95,605.09 c -12.02,-6.62 -58.91,-58.26 -72.22,-72.01 -12.46,-12.89 -23.65,-23.86 -36.16,-36.68 -7.79,-7.99 -26.79,-33.56 -47,-15.31 -12.44,11.23 -24.29,24.09 -36.67,36.13 -9.2,8.96 -32.22,28.84 -10.21,47.39 35.7,30.09 135.29,138.5 181.45,182.65 21.27,20.34 32.65,7.9 45.45,-4.76 L 776.61,417.32 c 9.29,-9.16 32.74,-24.46 22.59,-46.93 -3.22,-7.13 -28.17,-30.35 -35.3,-37.48 -41.66,-41.67 -41.76,-21.86 -119.85,54.65 L 533.9,495.87 c -11.26,11.16 -27.04,24.92 -36.21,36.61 -9.64,12.28 -63.75,67.25 -73.76,72.62 z"
           id="path9"
           style="fill:#ffffff" />
      </g>
    </g>
  </g>
</svg>
