<svg width="419" height="485" viewBox="0 0 419 485" fill="none" xmlns="http://www.w3.org/2000/svg">
<circle cx="163" cy="256" r="256" fill="transparent"/>
<path d="M200.951 165.099C216.348 174.752 227.145 191.089 229.11 210.051C235.39 212.985 242.359 214.673 249.748 214.673C276.723 214.673 298.586 192.809 298.586 165.838C298.586 138.863 276.723 117 249.748 117C223.031 117.008 201.358 138.481 200.951 165.099ZM168.956 265.094C195.931 265.094 217.794 243.227 217.794 216.256C217.794 189.285 195.927 167.422 168.956 167.422C141.985 167.422 120.109 189.289 120.109 216.26C120.109 243.231 141.985 265.094 168.956 265.094ZM189.672 268.423H148.231C113.751 268.423 85.6998 296.478 85.6998 330.959V381.638L85.8286 382.432L89.3195 383.525C122.225 393.806 150.812 397.235 174.342 397.235C220.3 397.235 246.939 384.131 248.58 383.296L251.842 381.646H252.192V330.959C252.204 296.478 224.153 268.423 189.672 268.423ZM270.473 218.005H229.352C228.907 234.458 221.884 249.273 210.775 259.929C241.424 269.042 263.848 297.463 263.848 331.033V346.651C304.45 345.163 327.847 333.656 329.389 332.883L332.651 331.229H333V280.533C333 246.057 304.949 218.005 270.473 218.005ZM83.2604 214.681C92.8145 214.681 101.704 211.892 109.234 207.142C111.628 191.529 119.997 177.886 131.953 168.594C132.003 167.679 132.09 166.773 132.09 165.851C132.09 138.876 110.223 117.012 83.2604 117.012C56.2813 117.012 34.4221 138.876 34.4221 165.851C34.4221 192.813 56.2813 214.681 83.2604 214.681ZM127.12 259.929C116.066 249.327 109.068 234.591 108.556 218.238C107.031 218.126 105.523 218.005 103.968 218.005H62.5315C28.0513 218.005 0 246.057 0 280.533V331.22L0.128828 332.002L3.61966 333.103C30.017 341.344 53.5759 345.142 74.0388 346.339V331.033C74.0471 297.463 96.4632 269.05 127.12 259.929Z" fill="white"/>
</svg>
