<?xml version="1.0" encoding="UTF-8" standalone="no"?>
<svg
   xmlns:dc="http://purl.org/dc/elements/1.1/"
   xmlns:cc="http://creativecommons.org/ns#"
   xmlns:rdf="http://www.w3.org/1999/02/22-rdf-syntax-ns#"
   xmlns:svg="http://www.w3.org/2000/svg"
   xmlns="http://www.w3.org/2000/svg"
   xmlns:sodipodi="http://sodipodi.sourceforge.net/DTD/sodipodi-0.dtd"
   xmlns:inkscape="http://www.inkscape.org/namespaces/inkscape"
   xml:space="preserve"
   width="25.2394mm"
   height="25.2394mm"
   version="1.1"
   style="shape-rendering:geometricPrecision; text-rendering:geometricPrecision; image-rendering:optimizeQuality; fill-rule:evenodd; clip-rule:evenodd"
   viewBox="0 0 1045.65 1045.65"
   aria-hidden="true"
   focusable="false"
   data-prefix="far"
   data-icon="times-circle"
   role="img"
   id="svg11"
   sodipodi:docname="close2.svg"
   inkscape:version="1.0.1 (3bc2e813f5, 2020-09-07)"><metadata
   id="metadata15"><rdf:RDF><cc:Work
       rdf:about=""><dc:format>image/svg+xml</dc:format><dc:type
         rdf:resource="http://purl.org/dc/dcmitype/StillImage" /><dc:title></dc:title></cc:Work></rdf:RDF></metadata><sodipodi:namedview
   pagecolor="#ffffff"
   bordercolor="#666666"
   borderopacity="1"
   objecttolerance="10"
   gridtolerance="10"
   guidetolerance="10"
   inkscape:pageopacity="0"
   inkscape:pageshadow="2"
   inkscape:window-width="1440"
   inkscape:window-height="837"
   id="namedview13"
   showgrid="false"
   inkscape:zoom="4"
   inkscape:cx="39.836478"
   inkscape:cy="43.005837"
   inkscape:window-x="-8"
   inkscape:window-y="-8"
   inkscape:window-maximized="1"
   inkscape:current-layer="svg11" />
 <defs
   id="defs4">
  <style
   type="text/css"
   id="style2">
   <![CDATA[
    .fil0 {fill:black;fill-rule:nonzero}
   ]]>
  </style>
 </defs>
 <g
   id="Camada_x0020_1"
   style="fill:#ffffff;fill-opacity:1">
  <metadata
   id="CorelCorpID_0Corel-Layer" />
  <g
   id="_2246374833456"
   style="fill:#ffffff;fill-opacity:1">
   <path
   class="fil0"
   d="M522.82 0c-288.82,0 -522.82,234 -522.82,522.82 0,288.82 234,522.82 522.82,522.82 288.82,0 522.82,-234 522.82,-522.82 0,-288.82 -234,-522.82 -522.82,-522.82zm0 944.46c-232.95,0 -421.63,-188.68 -421.63,-421.63 0,-232.95 188.68,-421.63 421.63,-421.63 232.95,0 421.63,188.68 421.63,421.63 0,232.95 -188.68,421.63 -421.63,421.63zm214.61 -552.76l-131.13 131.13 131.13 131.13c9.91,9.91 9.91,25.93 0,35.84l-47.64 47.64c-9.91,9.91 -25.93,9.91 -35.84,0l-131.13 -131.13 -131.13 131.13c-9.91,9.91 -25.93,9.91 -35.84,0l-47.64 -47.64c-9.91,-9.91 -9.91,-25.93 0,-35.84l131.13 -131.13 -131.13 -131.13c-9.91,-9.91 -9.91,-25.93 0,-35.84l47.64 -47.64c9.91,-9.91 25.93,-9.91 35.84,0l131.13 131.13 131.13 -131.13c9.91,-9.91 25.93,-9.91 35.84,0l47.64 47.64c9.91,9.91 9.91,25.93 0,35.84z"
   id="path7"
   style="fill:#008CD1;fill-opacity:1" />
  </g>
 </g>
</svg>
