<?xml version="1.0" encoding="UTF-8" standalone="no"?>
<svg
   xmlns:dc="http://purl.org/dc/elements/1.1/"
   xmlns:cc="http://creativecommons.org/ns#"
   xmlns:rdf="http://www.w3.org/1999/02/22-rdf-syntax-ns#"
   xmlns:svg="http://www.w3.org/2000/svg"
   xmlns="http://www.w3.org/2000/svg"
   xmlns:sodipodi="http://sodipodi.sourceforge.net/DTD/sodipodi-0.dtd"
   xmlns:inkscape="http://www.inkscape.org/namespaces/inkscape"
   version="1.1"
   id="svg10"
   width="125.12"
   height="148.8"
   viewBox="0 0 125.12 148.8"
   sodipodi:docname="outComment2.svg"
   inkscape:version="1.0.1 (3bc2e813f5, 2020-09-07)">
  <metadata
     id="metadata16">
    <rdf:RDF>
      <cc:Work
         rdf:about="">
        <dc:format>image/svg+xml</dc:format>
        <dc:type
           rdf:resource="http://purl.org/dc/dcmitype/StillImage" />
      </cc:Work>
    </rdf:RDF>
  </metadata>
  <defs
     id="defs14" />
  <sodipodi:namedview
     pagecolor="#ffffff"
     bordercolor="#666666"
     borderopacity="1"
     objecttolerance="10"
     gridtolerance="10"
     guidetolerance="10"
     inkscape:pageopacity="0"
     inkscape:pageshadow="2"
     inkscape:window-width="1366"
     inkscape:window-height="705"
     id="namedview12"
     showgrid="false"
     inkscape:zoom="0.74607367"
     inkscape:cx="212.91136"
     inkscape:cy="193.29441"
     inkscape:window-x="1432"
     inkscape:window-y="-8"
     inkscape:window-maximized="1"
     inkscape:current-layer="g18" />
  <g
     inkscape:groupmode="layer"
     inkscape:label="Image"
     id="g18">
    <path
       id="path23"
       style="fill:#fff;fill-opacity:1;stroke:none;stroke-width:1px;stroke-linecap:butt;stroke-linejoin:miter;stroke-opacity:1"
       d="M 60.710112,0.48112742 C 51.829972,0.52147742 42.922792,3.3549954 32.038244,8.6862059 20.428054,14.37283 10.949924,25.981747 3.9601127,42.686206 c -6.98981,16.704459 -1.18415,37.200885 -0.59179,39.570315 0.59236,2.36943 3.081,12.91275 9.1230413,21.324209 6.04204,8.41146 10.18872,12.44067 13.86133,16.11328 3.67261,3.67261 5.92175,5.0928 9.35742,7.34375 3.43566,2.25096 35.867184,21.85937 35.867184,21.85937 v -32.90625 c 0,0 12.58915,-1.50964 20.76367,-4.94531 8.174532,-3.43567 19.546422,-11.01826 24.996102,-19.785139 5.44969,-8.76688 10.30861,-30.091931 6.16211,-43.597663 -4.14649,-13.505733 -13.98126,-29.380165 -27.605482,-37.554687 -13.6242,-8.1745236 -23.93049,-9.24224258 -33.4082,-9.59765658 -0.592346,-0.02221 -1.183376,-0.03199 -1.775386,-0.0293 z m 0.551403,9.39514548 c 7.975393,0.2133361 14.631955,1.4904401 20.337645,3.5077351 3.776778,1.335312 7.276985,3.196297 10.072754,5.107331 9.359246,6.397465 19.741766,16.732254 22.585076,35.450726 2.84331,18.718471 -1.89473,25.825396 -7.46289,33.466806 -5.56815,7.6414 -11.078252,9.71472 -20.259772,13.150379 -9.18153,3.43567 -23.04101,3.85156 -23.04101,3.85156 v 27.42577 c 0,0 -13.444486,-6.45594 -24.669924,-14.49804 -11.22543,-8.04211 -17.34092,-18.054066 -21.36197,-25.258459 -4.02105,-7.20438 -6.60038,-18.981281 -6.73437,-30.235885 -0.11847,-9.951591 3.84072,-19.768413 6.31569,-24.50769 1.57617,-2.892199 5.72232,-9.414706 12.96012,-15.432002 5.21531,-4.33586 13.437434,-8.825047 18.957674,-10.20331 3.946951,-0.985453 8.317813,-1.9314671 12.300977,-1.8249211 z"
       sodipodi:nodetypes="sssssssccsssssssssssssccssscsss" />
  </g>
</svg>
