<?xml version="1.0" encoding="UTF-8"?>
<!DOCTYPE svg PUBLIC "-//W3C//DTD SVG 1.1//EN" "http://www.w3.org/Graphics/SVG/1.1/DTD/svg11.dtd">
<!-- Creator: CorelDRAW 2019 (64 Bit) -->
<svg xmlns="http://www.w3.org/2000/svg" id="Capa_1" xml:space="preserve" width="18.2448mm" height="16.2225mm" version="1.1" style="shape-rendering:geometricPrecision; text-rendering:geometricPrecision; image-rendering:optimizeQuality; fill-rule:evenodd; clip-rule:evenodd"
viewBox="0 0 372.61 331.31"
 xmlns:xlink="http://www.w3.org/1999/xlink"
 xmlns:xodm="http://www.corel.com/coreldraw/odm/2003">
 <defs>
  <style type="text/css">
   <![CDATA[
    .fil0 {fill:black}
   ]]>
  </style>
 </defs>
 <g id="Camada_x0020_1">
  <metadata id="CorelCorpID_0Corel-Layer"/>
  <g id="_1671554873696">
   <path class="fil0" d="M20.62 124.57c4.18,-0.42 23.29,3.04 29.64,3.66 24.7,2.42 64.63,1.83 72.6,-25.03 3.01,-10.13 0.52,-18.31 -4.14,-25.86 -10.34,-16.76 -26.43,-40.62 2.22,-53.17 3.86,-1.69 8.61,-2.8 13,-3.17 26.4,-2.2 38.39,14.67 31.18,31.81 -5.66,13.43 -22.35,24.54 -19.88,46.58 1.98,17.67 21.39,24.56 39.98,26.5 27.83,2.92 37.59,-0.87 62.08,-2.22 -2.04,17.96 -4.55,38.86 0.1,56.26 4.15,15.52 13.86,29.03 33.11,26.79 16.1,-1.87 24.74,-17.16 41.22,-19.64 11.91,-1.79 16.5,0.66 22.55,6.94 15.4,15.99 7.42,59.29 -19.81,55.16 -8.79,-1.33 -14.28,-6.81 -19.89,-10.74 -13.14,-9.22 -31.39,-15.53 -45.15,-6.12 -21,14.37 -15.59,50.26 -12.08,71.79 -19.47,2.24 -41.73,5.71 -61.38,5.08 -36.08,-1.15 -19.87,-18.76 -10.58,-31.73 25.46,-35.55 2.52,-70.14 -40.12,-70.36 -46.8,-0.23 -65.17,33.54 -43.17,70.65 4.98,8.4 12.49,15.19 10.89,21.24 -2.07,7.8 -13.15,10.25 -22.26,11.08 -20.84,1.92 -40.18,-1.64 -60.11,-4.78l0 -180.71zm252.84 -26.53c-26.55,3.37 -34.7,6.81 -65.84,8.21 -11.41,0.51 -23.69,0.03 -33.84,-3.49 -28.61,-9.93 27.97,-34.8 10.62,-76.21 -15.1,-36.03 -76.52,-34.23 -95.13,-1.6 -11.64,20.41 -1.87,40.67 7.44,56.15 5.17,8.6 11.89,16.82 -0.57,23.08 -22.64,11.36 -73.25,-1.8 -96.12,-5.78l0 223.57c9.73,1.47 20.18,4.19 30.46,5.91 22.73,3.79 58.64,7.1 79,-5.45 2.09,-1.29 3.41,-2.44 5.13,-3.66 1.94,-1.38 2.75,-2.82 4.06,-4.75 14.65,-21.5 -2.65,-36.09 -11.16,-50.3 -4.96,-8.28 -5.83,-20.84 0.66,-27.78 6.23,-6.67 16.51,-8.18 27.81,-8.1 24.06,0.17 38.44,16.92 23.26,36.83 -5.16,6.77 -10.83,12.09 -14.12,22.39 -3.16,9.88 -1.5,21.61 3.83,28.56 11.86,15.44 34.71,15.41 57.96,13.47 11.1,-0.92 22.12,-2.26 33.18,-3.16 10.63,-0.87 23.56,-0.82 33.64,-2.05l-6.62 -27.66c-1.94,-9 -3.19,-21.58 -2.39,-31.04 2.61,-30.93 24.83,-10.86 37.47,-3.37 42.3,25.06 72.74,-10.68 70.3,-48.76 -2.59,-40.44 -38.94,-61.65 -78.04,-36.34 -7.18,4.65 -16.25,13.03 -22.2,7.53 -15.17,-14.04 -1.51,-69.37 1.23,-86.17z"/>
  </g>
 </g>
</svg>
