<?xml version="1.0" encoding="UTF-8" standalone="no"?>
<svg
   xmlns:dc="http://purl.org/dc/elements/1.1/"
   xmlns:cc="http://creativecommons.org/ns#"
   xmlns:rdf="http://www.w3.org/1999/02/22-rdf-syntax-ns#"
   xmlns:svg="http://www.w3.org/2000/svg"
   xmlns="http://www.w3.org/2000/svg"
   xmlns:xlink="http://www.w3.org/1999/xlink"
   xmlns:sodipodi="http://sodipodi.sourceforge.net/DTD/sodipodi-0.dtd"
   xmlns:inkscape="http://www.inkscape.org/namespaces/inkscape"
   xml:space="preserve"
   width="23.8487mm"
   height="21.2696mm"
   version="1.1"
   style="shape-rendering:geometricPrecision; text-rendering:geometricPrecision; image-rendering:optimizeQuality; fill-rule:evenodd; clip-rule:evenodd"
   viewBox="0 0 286.31 255.35"
   id="svg10"
   sodipodi:docname="entrega2-gradient.svg"
   inkscape:version="1.0.1 (3bc2e813f5, 2020-09-07)"><metadata
   id="metadata14"><rdf:RDF><cc:Work
       rdf:about=""><dc:format>image/svg+xml</dc:format><dc:type
         rdf:resource="http://purl.org/dc/dcmitype/StillImage" /><dc:title></dc:title></cc:Work></rdf:RDF></metadata><sodipodi:namedview
   pagecolor="#ffffff"
   bordercolor="#666666"
   borderopacity="1"
   objecttolerance="10"
   gridtolerance="10"
   guidetolerance="10"
   inkscape:pageopacity="0"
   inkscape:pageshadow="2"
   inkscape:window-width="1440"
   inkscape:window-height="837"
   id="namedview12"
   showgrid="false"
   inkscape:zoom="7.8120103"
   inkscape:cx="45.068409"
   inkscape:cy="40.19452"
   inkscape:window-x="-8"
   inkscape:window-y="-8"
   inkscape:window-maximized="1"
   inkscape:current-layer="svg10"
   inkscape:document-rotation="0" />
 <defs
   id="defs4"><linearGradient
   inkscape:collect="always"
   id="linearGradient843"><stop
     style="stop-color:#e08333;stop-opacity:1;"
     offset="0"
     id="stop839" /><stop
     style="stop-color:#e08333;stop-opacity:0;"
     offset="1"
     id="stop841" /></linearGradient>
  <style
   type="text/css"
   id="style2">
   <![CDATA[
    .fil0 {fill:#373435}
   ]]>
  </style>
 <linearGradient
   inkscape:collect="always"
   xlink:href="#linearGradient843"
   id="linearGradient845"
   x1="-0.02"
   y1="127.68"
   x2="286.28499"
   y2="127.68"
   gradientUnits="userSpaceOnUse" /></defs>
 <g
   id="Camada_x0020_1"
   style="fill:#e05723;fill-opacity:1">
  <metadata
   id="CorelCorpID_0Corel-Layer" />
  <path
   class="fil0"
   d="M0.26 181.61c0,8.17 -0.08,9.57 8.8,9.57l30.27 0c1.74,0.01 2.35,-0.25 3.87,-0.27 6.43,-0.08 5.81,-0.33 11.47,-4.57l13.79 -10.27c3.15,-2.27 6.56,-4.47 10.2,-6.1 6.19,-2.77 19.97,-2.85 29.23,-2.85l23.8 -0.26c3,0 5.28,0.27 8.02,0.26 8.31,-0.03 24.85,-0.45 29.65,2.43 3.65,2.19 5.49,6.29 5.07,10.54 -0.45,4.57 -2.5,8.05 -6.75,9.57 -7.26,2.61 -20.72,1.47 -30.57,1.77 -5.25,0.16 -10.63,-0 -15.77,0.27 -5.82,0.31 -9.31,2 -9.31,8.28 0,4.01 3.16,5.83 6.73,6.21 4,0.43 8.12,0.73 12.15,0.79l51.49 0.25c8.87,0 22.54,1.04 31.15,-0.93 1.86,-0.43 3.24,-1.1 4.56,-1.9 2.72,-1.65 5.27,-3.32 7.75,-5.19 6.76,-5.11 13.68,-10.07 20.26,-15.44 2.96,-2.42 6.09,-5.05 9.48,-6.82 5.11,-2.65 14.75,-0.25 14.75,9.32 0,3.4 -1.42,5.45 -3.17,7.18l-5.48 4.87c-10.56,8.35 -24.33,19.05 -34.62,27.47 -4.84,3.96 -12.82,11.06 -19.01,12.04 -9.78,1.55 -24.35,1.54 -34.74,1.48 -18.88,-0.11 -37.71,0.26 -56.66,0.26l-103.49 -0 -9.77 0.58c-3.29,0.46 -3.42,3.93 -3.43,6.79l0 0.14c0,7.61 2.13,7.36 7.49,7.78l37.79 0.5c50.7,0 101.45,-0.53 152.12,-0.52 7.52,0 12.57,-0.07 19.43,-2.56 5.8,-2.1 12.5,-8.02 17.49,-11.74l6.1 -4.76c0.74,-0.6 1.29,-1.05 2.02,-1.6 7.79,-5.81 16.47,-13.14 24.25,-19.48 5.2,-4.23 11.4,-8.36 15.2,-14.03 9.88,-14.75 2.64,-36.34 -16.35,-40.11 -6.13,-1.22 -12.43,-0.42 -17.66,2.74 -5.98,3.63 -11.59,7.88 -17.12,12.11 -5.52,4.22 -10.76,8.75 -16.29,12.94 -3.32,2.52 -5.64,3.11 -11.38,3.1 -4.91,-0 -9.83,0 -14.75,0 4.5,-8.5 2.61,-21.92 -3.43,-28.65l-4.27 -4.26c-5.21,-4.58 -11.62,-6.71 -18.95,-6.66 -1.93,0.01 -3.24,-0.27 -5.43,-0.26l-38.03 -0.26c-3.32,-0 -6.05,0.26 -9.57,0.26 -3.28,0 -6.55,0 -9.83,0 -1.92,-0 -3.11,0.22 -4.65,0.27 -4.46,0.13 -9.58,0 -13.78,0.97 -2.94,0.68 -4.91,1.35 -7.54,2.29 -6.94,2.46 -12.67,6.95 -18.45,11.3l-6.91 5.25c-0.59,0.45 -0.93,0.63 -1.52,1.07 -4.55,3.42 -5.91,2.66 -12.34,2.66 -4.15,0 -26.22,-0.4 -29.27,0.22 -3.11,0.64 -4.1,2.79 -4.1,5.98zm111.3 -166.29l0 64.03 31.37 -15.52 31.21 15.35 0 -63.87 41.98 0c3.32,0 6.04,2.72 6.04,6.04l0 84.96c0,3.32 -2.72,6.04 -6.04,6.04l-146.38 0c-3.32,0 -6.04,-2.72 -6.04,-6.04l0 -84.96c0,-3.32 2.72,-6.04 6.04,-6.04l41.82 0zm47.21 0l0 38.48 -15.85 -7.44 -15.52 7.76 0 -38.81 31.37 0zm-103.62 -15.32l175.56 0c4.37,0 7.95,3.58 7.95,7.95l0 111.78c0,4.37 -3.58,7.95 -7.95,7.95l-175.56 0c-4.37,0 -7.94,-3.58 -7.94,-7.95l0 -111.78c0,-4.37 3.58,-7.95 7.94,-7.95z"
   id="path7"
   style="fill:#e05723;fill-opacity:1" />
 </g>
<g
   id="g837"
   style="fill:url(#linearGradient845);fill-opacity:1">
  <metadata
   id="metadata833"
   style="fill-opacity:1;fill:url(#linearGradient845)" />
  <path
   class="fil0"
   d="M0.26 181.61c0,8.17 -0.08,9.57 8.8,9.57l30.27 0c1.74,0.01 2.35,-0.25 3.87,-0.27 6.43,-0.08 5.81,-0.33 11.47,-4.57l13.79 -10.27c3.15,-2.27 6.56,-4.47 10.2,-6.1 6.19,-2.77 19.97,-2.85 29.23,-2.85l23.8 -0.26c3,0 5.28,0.27 8.02,0.26 8.31,-0.03 24.85,-0.45 29.65,2.43 3.65,2.19 5.49,6.29 5.07,10.54 -0.45,4.57 -2.5,8.05 -6.75,9.57 -7.26,2.61 -20.72,1.47 -30.57,1.77 -5.25,0.16 -10.63,-0 -15.77,0.27 -5.82,0.31 -9.31,2 -9.31,8.28 0,4.01 3.16,5.83 6.73,6.21 4,0.43 8.12,0.73 12.15,0.79l51.49 0.25c8.87,0 22.54,1.04 31.15,-0.93 1.86,-0.43 3.24,-1.1 4.56,-1.9 2.72,-1.65 5.27,-3.32 7.75,-5.19 6.76,-5.11 13.68,-10.07 20.26,-15.44 2.96,-2.42 6.09,-5.05 9.48,-6.82 5.11,-2.65 14.75,-0.25 14.75,9.32 0,3.4 -1.42,5.45 -3.17,7.18l-5.48 4.87c-10.56,8.35 -24.33,19.05 -34.62,27.47 -4.84,3.96 -12.82,11.06 -19.01,12.04 -9.78,1.55 -24.35,1.54 -34.74,1.48 -18.88,-0.11 -37.71,0.26 -56.66,0.26l-103.49 -0 -9.77 0.58c-3.29,0.46 -3.42,3.93 -3.43,6.79l0 0.14c0,7.61 2.13,7.36 7.49,7.78l37.79 0.5c50.7,0 101.45,-0.53 152.12,-0.52 7.52,0 12.57,-0.07 19.43,-2.56 5.8,-2.1 12.5,-8.02 17.49,-11.74l6.1 -4.76c0.74,-0.6 1.29,-1.05 2.02,-1.6 7.79,-5.81 16.47,-13.14 24.25,-19.48 5.2,-4.23 11.4,-8.36 15.2,-14.03 9.88,-14.75 2.64,-36.34 -16.35,-40.11 -6.13,-1.22 -12.43,-0.42 -17.66,2.74 -5.98,3.63 -11.59,7.88 -17.12,12.11 -5.52,4.22 -10.76,8.75 -16.29,12.94 -3.32,2.52 -5.64,3.11 -11.38,3.1 -4.91,-0 -9.83,0 -14.75,0 4.5,-8.5 2.61,-21.92 -3.43,-28.65l-4.27 -4.26c-5.21,-4.58 -11.62,-6.71 -18.95,-6.66 -1.93,0.01 -3.24,-0.27 -5.43,-0.26l-38.03 -0.26c-3.32,-0 -6.05,0.26 -9.57,0.26 -3.28,0 -6.55,0 -9.83,0 -1.92,-0 -3.11,0.22 -4.65,0.27 -4.46,0.13 -9.58,0 -13.78,0.97 -2.94,0.68 -4.91,1.35 -7.54,2.29 -6.94,2.46 -12.67,6.95 -18.45,11.3l-6.91 5.25c-0.59,0.45 -0.93,0.63 -1.52,1.07 -4.55,3.42 -5.91,2.66 -12.34,2.66 -4.15,0 -26.22,-0.4 -29.27,0.22 -3.11,0.64 -4.1,2.79 -4.1,5.98zm111.3 -166.29l0 64.03 31.37 -15.52 31.21 15.35 0 -63.87 41.98 0c3.32,0 6.04,2.72 6.04,6.04l0 84.96c0,3.32 -2.72,6.04 -6.04,6.04l-146.38 0c-3.32,0 -6.04,-2.72 -6.04,-6.04l0 -84.96c0,-3.32 2.72,-6.04 6.04,-6.04l41.82 0zm47.21 0l0 38.48 -15.85 -7.44 -15.52 7.76 0 -38.81 31.37 0zm-103.62 -15.32l175.56 0c4.37,0 7.95,3.58 7.95,7.95l0 111.78c0,4.37 -3.58,7.95 -7.95,7.95l-175.56 0c-4.37,0 -7.94,-3.58 -7.94,-7.95l0 -111.78c0,-4.37 3.58,-7.95 7.94,-7.95z"
   id="path835"
   style="fill:url(#linearGradient845);fill-opacity:1" />
 </g></svg>
