<?xml version="1.0" encoding="UTF-8"?>
<!DOCTYPE svg PUBLIC "-//W3C//DTD SVG 1.1//EN" "http://www.w3.org/Graphics/SVG/1.1/DTD/svg11.dtd">
<!-- Creator: CorelDRAW 2020 (64 Bit) -->
<svg xmlns="http://www.w3.org/2000/svg" xml:space="preserve" width="36.3929mm" height="37.5843mm" version="1.1" style="shape-rendering:geometricPrecision; text-rendering:geometricPrecision; image-rendering:optimizeQuality; fill-rule:evenodd; clip-rule:evenodd"
viewBox="0 0 347.09 358.46"
 xmlns:xlink="http://www.w3.org/1999/xlink"
 xmlns:xodm="http://www.corel.com/coreldraw/odm/2003">
 <defs>
  <style type="text/css">
   <![CDATA[
    .fil0 {fill:url(#id0)}
   ]]>
  </style>
  <linearGradient id="id0" gradientUnits="userSpaceOnUse" x1="305.69" y1="295.55" x2="41.4" y2="62.91">
   <stop offset="0" style="stop-opacity:1; stop-color:#DB4B1F"/>
   <stop offset="0.509804" style="stop-opacity:1; stop-color:#E86829"/>
   <stop offset="1" style="stop-opacity:1; stop-color:#F58634"/>
  </linearGradient>
 </defs>
 <g id="Camada_x0020_1">
  <metadata id="CorelCorpID_0Corel-Layer"/>
  <path class="fil0" d="M235.12 7.37c2.15,-0.98 4.71,-2.07 7.84,-3.1 3.13,-1.03 6.82,-1.98 10.16,-2.69 3.34,-0.71 6.33,-1.17 9.48,-1.4 3.16,-0.23 6.48,-0.24 10.12,0.02 3.64,0.26 7.59,0.78 10.87,1.36 3.28,0.58 5.88,1.22 8.71,2.14 2.83,0.92 5.88,2.13 8.67,3.41 2.79,1.28 5.33,2.62 7.9,4.16 2.57,1.54 5.18,3.26 8.3,5.85 3.13,2.58 6.78,6.02 9.77,9.3 2.99,3.28 5.32,6.39 7.14,9.04 1.82,2.65 3.12,4.83 4.55,7.8 1.43,2.97 2.98,6.72 4.28,10.74 1.3,4.02 2.35,8.3 3.02,12.13 0.67,3.83 0.97,7.2 1.1,10.28 0.13,3.08 0.09,5.87 -0.11,8.73 -0.21,2.86 -0.58,5.8 -1.15,8.77 -0.57,2.97 -1.34,5.99 -2.3,9.03 -0.96,3.04 -2.11,6.11 -3.49,9.17 -1.38,3.07 -2.98,6.13 -4.27,8.6 -1.29,2.47 -2.27,4.35 -2.76,5.45 -0.5,1.1 -0.52,1.42 -0.52,5.41 -0,3.99 0.01,11.64 0.03,44.72 0.03,33.08 0.07,91.59 0.04,123.46 -0.03,31.87 -0.14,37.1 -0.29,40.3 -0.15,3.2 -0.35,4.37 -0.73,5.63 -0.38,1.26 -0.94,2.62 -1.59,3.81 -0.64,1.19 -1.37,2.21 -2.28,3.2 -0.9,0.99 -1.98,1.96 -3.1,2.76 -1.12,0.79 -2.29,1.41 -3.44,1.84 -1.15,0.43 -2.27,0.67 -3.51,0.83 -1.24,0.16 -2.58,0.25 -6.21,0.3 -3.63,0.04 -9.55,0.04 -58.71,0.04 -49.16,0 -141.55,0 -188.26,-0.02 -46.71,-0.02 -47.72,-0.06 -48.71,-0.17 -0.98,-0.11 -1.93,-0.29 -2.99,-0.6 -1.06,-0.31 -2.23,-0.77 -3.3,-1.3 -1.07,-0.54 -2.05,-1.16 -2.97,-1.89 -0.92,-0.73 -1.79,-1.58 -2.59,-2.59 -0.8,-1.01 -1.54,-2.19 -2.09,-3.31 -0.55,-1.12 -0.92,-2.18 -1.17,-3.25 -0.25,-1.07 -0.38,-2.16 -0.45,-4.62 -0.06,-2.46 -0.06,-6.28 -0.08,-55.25 -0.02,-48.97 -0.05,-143.08 -0.02,-191.4 0.03,-48.33 0.13,-50.87 0.37,-52.81 0.24,-1.95 0.61,-3.3 1.25,-4.67 0.64,-1.38 1.54,-2.78 2.54,-3.98 1,-1.2 2.1,-2.2 3.39,-3.04 1.29,-0.84 2.77,-1.53 4.07,-2.03 1.3,-0.51 2.41,-0.84 4.25,-1.07 1.84,-0.23 4.41,-0.36 7.96,-0.41 3.55,-0.05 8.08,-0.01 38.55,0.03 30.47,0.04 86.89,0.07 115.64,0.07 28.75,-0 29.82,-0.05 30.55,-0.18 0.73,-0.13 1.13,-0.36 1.76,-0.89 0.63,-0.53 1.48,-1.36 2.87,-2.63 1.38,-1.27 3.29,-2.97 5.07,-4.47 1.78,-1.5 3.43,-2.81 5.27,-4.09 1.85,-1.28 3.89,-2.54 5.79,-3.6 1.89,-1.07 3.63,-1.94 5.78,-2.92zm33.31 40.3c14.69,0 26.59,11.91 26.59,26.59 0,14.69 -11.91,26.59 -26.59,26.59 -14.69,0 -26.59,-11.9 -26.59,-26.59 0,-14.69 11.91,-26.59 26.59,-26.59zm-149.46 59.88c8.68,0.02 18.96,0.03 24.09,0.04 5.14,0.01 5.14,0.01 5.14,0.01 0,0 0,0 0.05,0.81 0.05,0.81 0.16,2.43 0.2,4.19 0.04,1.76 0.01,3.66 -0.12,5.92 -0.13,2.27 -0.36,4.9 -0.87,7.81 -0.51,2.91 -1.29,6.1 -2.05,8.57 -0.76,2.47 -1.5,4.22 -2.31,5.81 -0.81,1.6 -1.69,3.05 -2.45,4.23 -0.76,1.18 -1.41,2.07 -2.18,3.09 -0.77,1.02 -1.67,2.16 -2.83,3.5 -1.16,1.34 -2.58,2.88 -3.8,4.09 -1.23,1.21 -2.26,2.08 -3.48,3.03 -1.22,0.94 -2.64,1.95 -4.08,2.92 -1.44,0.97 -2.91,1.92 -4.39,2.71 -1.48,0.79 -2.98,1.43 -4.75,2.09 -1.78,0.66 -3.83,1.33 -5.84,1.87 -2.01,0.54 -3.98,0.94 -5.62,1.22 -1.64,0.27 -2.96,0.41 -4.8,0.5 -1.85,0.09 -4.22,0.13 -6.64,-0.04 -2.41,-0.17 -4.87,-0.55 -7.44,-1.17 -2.57,-0.62 -5.25,-1.49 -7.47,-2.32 -2.22,-0.82 -3.97,-1.6 -6.07,-2.79 -2.09,-1.2 -4.52,-2.81 -6.57,-4.32 -2.04,-1.51 -3.7,-2.92 -5.19,-4.45 -1.49,-1.53 -2.82,-3.17 -4.12,-4.83 -1.3,-1.66 -2.57,-3.34 -3.65,-4.99 -1.08,-1.65 -1.97,-3.28 -2.87,-5.24 -0.9,-1.96 -1.8,-4.25 -2.52,-6.62 -0.72,-2.38 -1.25,-4.84 -1.62,-7.33 -0.37,-2.49 -0.6,-4.99 -0.66,-7.28 -0.07,-2.29 0.02,-4.37 0.31,-6.72 0.29,-2.35 0.78,-4.96 1.54,-7.69 0.76,-2.72 1.79,-5.55 3.04,-8.23 1.24,-2.68 2.7,-5.2 4.57,-7.79 1.87,-2.59 4.16,-5.24 6.05,-7.2 1.89,-1.96 3.38,-3.23 5.34,-4.71 1.96,-1.48 4.41,-3.16 7.27,-4.63 2.87,-1.47 6.16,-2.74 9.32,-3.65 3.16,-0.91 6.2,-1.47 9.41,-1.75 3.21,-0.28 6.59,-0.29 9.89,0 3.3,0.29 6.53,0.89 9.38,1.64 2.85,0.75 5.32,1.65 7.76,2.81 2.44,1.15 4.84,2.55 6.38,3.48 1.53,0.93 2.2,1.38 2.58,1.7 0.38,0.32 0.47,0.51 0.5,0.72 0.03,0.21 0,0.44 -0.1,0.7 -0.1,0.26 -0.28,0.55 -2.06,2.9 -1.78,2.35 -5.17,6.76 -7.02,9.13 -1.84,2.37 -2.14,2.69 -2.44,2.86 -0.3,0.17 -0.61,0.19 -1.05,0.05 -0.44,-0.14 -1.03,-0.46 -2.56,-1.22 -1.54,-0.76 -4.02,-1.97 -6.18,-2.78 -2.16,-0.81 -4,-1.21 -6.18,-1.4 -2.18,-0.2 -4.7,-0.19 -6.84,0.01 -2.13,0.19 -3.88,0.57 -5.51,1.03 -1.63,0.46 -3.15,1.01 -4.76,1.8 -1.61,0.79 -3.32,1.84 -5.04,3.11 -1.72,1.28 -3.45,2.79 -4.87,4.27 -1.42,1.48 -2.52,2.94 -3.51,4.6 -0.99,1.67 -1.87,3.55 -2.58,5.63 -0.71,2.08 -1.24,4.37 -1.55,6.37 -0.31,2.01 -0.39,3.73 -0.36,5.39 0.03,1.66 0.18,3.24 0.47,4.92 0.29,1.68 0.72,3.46 1.72,5.63 0.99,2.18 2.54,4.75 3.76,6.54 1.22,1.79 2.12,2.8 3.45,4.04 1.33,1.24 3.1,2.7 5.1,4 2,1.3 4.23,2.45 6.8,3.26 2.58,0.81 5.5,1.3 8.24,1.45 2.74,0.15 5.3,-0.02 7.66,-0.45 2.36,-0.42 4.52,-1.1 6.82,-2.18 2.3,-1.08 4.75,-2.57 6.53,-3.84 1.78,-1.27 2.88,-2.33 4.02,-3.62 1.14,-1.29 2.31,-2.82 3.23,-4.23 0.93,-1.41 1.61,-2.69 2.02,-3.72 0.41,-1.03 0.53,-1.8 0.6,-2.19 0.06,-0.39 0.06,-0.39 0.06,-0.39 0,0 0,0 -4.82,-0.04 -4.82,-0.04 -14.47,-0.11 -19.3,-0.15 -4.82,-0.04 -4.82,-0.04 -4.82,-0.04 0,0 0,0 -0.03,-3.42 -0.03,-3.42 -0.08,-10.27 -0.11,-13.69 -0.03,-3.42 -0.03,-3.42 -0.03,-3.42 0,0 0,0 3.54,0.01 3.54,0.01 10.63,0.02 19.31,0.03zm121.97 -79.42c-2.24,1.23 -4.42,2.63 -6.13,3.8 -1.71,1.17 -2.94,2.11 -4.23,3.24 -1.29,1.13 -2.63,2.44 -4.21,4.19 -1.58,1.75 -3.39,3.94 -4.84,5.87 -1.45,1.93 -2.54,3.61 -3.5,5.28 -0.96,1.67 -1.8,3.33 -2.64,5.33 -0.84,2 -1.68,4.34 -2.3,6.27 -0.62,1.93 -1.01,3.45 -1.35,5.15 -0.35,1.7 -0.65,3.57 -0.85,5.57 -0.2,1.99 -0.31,4.1 -0.29,6.32 0.02,2.22 0.15,4.54 0.48,7.03 0.33,2.49 0.86,5.16 1.89,8.51 1.03,3.35 2.55,7.39 4.12,10.82 1.57,3.43 3.17,6.25 4.91,9.01 1.74,2.76 3.61,5.47 6.01,8.64 2.39,3.18 5.31,6.82 8.22,10.43 2.91,3.61 5.82,7.18 9.08,11.42 3.26,4.24 6.87,9.16 9.3,12.61 2.43,3.45 3.68,5.44 4.82,7.36 1.15,1.92 2.19,3.77 3.15,5.61 0.96,1.85 1.84,3.69 2.83,5.89 0.99,2.2 2.1,4.75 2.66,6.02 0.55,1.27 0.55,1.27 0.55,1.27 0,0 0,0 0.27,-0.85 0.27,-0.85 0.8,-2.55 1.63,-4.56 0.83,-2.02 1.96,-4.35 3.27,-6.82 1.3,-2.46 2.78,-5.05 4.38,-7.69 1.61,-2.64 3.34,-5.33 5.38,-8.24 2.03,-2.91 4.36,-6.04 6.84,-9.25 2.49,-3.21 5.13,-6.49 8.2,-10.3 3.07,-3.81 6.55,-8.13 9.32,-11.79 2.77,-3.66 4.82,-6.65 6.7,-9.62 1.88,-2.97 3.59,-5.94 4.92,-8.55 1.33,-2.62 2.29,-4.88 3.05,-6.88 0.76,-2 1.31,-3.73 1.83,-5.71 0.51,-1.98 0.99,-4.21 1.3,-6.15 0.31,-1.94 0.47,-3.58 0.55,-5.38 0.08,-1.8 0.08,-3.77 -0.03,-5.83 -0.11,-2.06 -0.34,-4.23 -0.73,-6.54 -0.39,-2.31 -0.96,-4.77 -1.54,-6.85 -0.58,-2.08 -1.19,-3.8 -1.97,-5.66 -0.78,-1.86 -1.73,-3.86 -2.71,-5.68 -0.97,-1.81 -1.97,-3.43 -3.26,-5.25 -1.29,-1.82 -2.88,-3.84 -4.37,-5.55 -1.49,-1.71 -2.88,-3.1 -4.28,-4.39 -1.41,-1.28 -2.83,-2.46 -4.39,-3.62 -1.56,-1.16 -3.26,-2.31 -5.11,-3.39 -1.85,-1.09 -3.84,-2.12 -5.92,-3.03 -2.08,-0.92 -4.25,-1.73 -6.25,-2.37 -2,-0.65 -3.83,-1.14 -5.93,-1.52 -2.09,-0.38 -4.45,-0.66 -6.52,-0.84 -2.07,-0.18 -3.86,-0.26 -5.82,-0.23 -1.97,0.03 -4.11,0.18 -6.18,0.44 -2.07,0.25 -4.05,0.61 -6.28,1.15 -2.23,0.54 -4.7,1.27 -7.09,2.16 -2.38,0.89 -4.68,1.96 -6.92,3.19zm5.86 159.01c1.17,2.63 1.92,4.61 2.71,7.18 0.79,2.57 1.63,5.71 2.23,8.58 0.61,2.87 0.98,5.47 1.26,8.48 0.28,3.01 0.46,6.42 0.55,9.61 0.09,3.19 0.09,6.16 0.09,7.64 0,1.48 0,1.48 0,1.48 0,0 0,0 4.91,-0.02 4.91,-0.02 14.74,-0.05 19.65,-0.07 4.91,-0.02 4.91,-0.02 4.91,-0.02 0,0 0,0 0.02,-1.97 0.02,-1.97 0.07,-5.91 0.27,-10.07 0.2,-4.16 0.54,-8.53 1.21,-12.5 0.67,-3.97 1.66,-7.53 2.76,-10.98 1.09,-3.46 2.29,-6.81 4.24,-10.83 1.96,-4.02 4.67,-8.71 7.21,-12.68 2.54,-3.98 4.91,-7.24 6.91,-9.8 2,-2.56 3.62,-4.41 4.43,-5.33 0.81,-0.92 0.81,-0.92 0.81,-0.92 0,0 0,0 0.02,27.87 0.02,27.87 0.07,83.62 0.1,111.49 0.02,27.87 0.02,27.87 0.02,27.87 0,0 0,0 -21.67,-21.66 -21.67,-21.66 -65.02,-64.99 -86.69,-86.65 -21.67,-21.66 -21.67,-21.66 -21.67,-21.66 0,0 0,0 6.91,-6.9 6.91,-6.9 20.74,-20.69 27.66,-27.59 6.91,-6.9 6.91,-6.9 6.91,-6.9 0,0 0,0 1.5,1.98 1.5,1.98 4.51,5.95 7.82,10.48 3.31,4.53 6.92,9.62 9.53,13.8 2.6,4.18 4.2,7.45 5.37,10.08zm-124.05 63.25c-21.65,21.67 -54.1,54.33 -70.32,70.66 -16.22,16.33 -16.22,16.33 -16.22,16.33 0,0 0,0 43.3,-0.01 43.3,-0.01 129.9,-0.03 173.19,-0.04 43.3,-0.01 43.3,-0.01 43.3,-0.01 0,0 0,0 -21.65,-21.66 -21.65,-21.66 -64.94,-64.97 -86.58,-86.63 -21.65,-21.66 -21.65,-21.66 -21.65,-21.66 0,0 0,0 -5.43,5.34 -5.43,5.34 -16.29,16.01 -37.94,37.68zm68.77 -189.32c-0.53,2.58 -1.03,5.61 -1.39,8.67 -0.36,3.06 -0.6,6.14 -0.67,8.78 -0.07,2.64 0.02,4.84 0.26,7.38 0.24,2.55 0.62,5.44 1.25,8.53 0.63,3.09 1.51,6.37 2.7,9.86 1.19,3.49 2.7,7.18 4.44,10.72 1.74,3.54 3.71,6.94 5.62,10.05 1.91,3.12 3.76,5.96 4.68,7.38 0.92,1.42 0.92,1.42 0.92,1.42 0,0 0,0 -0.95,1.05 -0.95,1.05 -2.85,3.14 -7.04,7.43 -4.19,4.29 -10.66,10.79 -41.05,41.16 -30.4,30.38 -84.72,84.64 -111.88,111.77 -27.16,27.13 -27.16,27.13 -27.16,27.13 0,0 0,0 -0.04,-45.82 -0.04,-45.82 -0.13,-137.45 -0.17,-183.27 -0.04,-45.82 -0.04,-45.82 -0.04,-45.82 0,0 0,0 29.09,-0 29.09,-0 87.28,-0 116.37,-0 29.09,-0 29.09,-0 29.09,-0 0,0 0,0 -0.39,1.13 -0.39,1.13 -1.18,3.38 -1.86,5.56 -0.68,2.19 -1.26,4.31 -1.79,6.88z"/>
 </g>
</svg>
