<?xml version="1.0" encoding="UTF-8" standalone="no"?>
<svg
   xmlns:dc="http://purl.org/dc/elements/1.1/"
   xmlns:cc="http://creativecommons.org/ns#"
   xmlns:rdf="http://www.w3.org/1999/02/22-rdf-syntax-ns#"
   xmlns:svg="http://www.w3.org/2000/svg"
   xmlns="http://www.w3.org/2000/svg"
   xmlns:sodipodi="http://sodipodi.sourceforge.net/DTD/sodipodi-0.dtd"
   xmlns:inkscape="http://www.inkscape.org/namespaces/inkscape"
   xml:space="preserve"
   width="21.66mm"
   height="21.6317mm"
   version="1.1"
   style="shape-rendering:geometricPrecision; text-rendering:geometricPrecision; image-rendering:optimizeQuality; fill-rule:evenodd; clip-rule:evenodd"
   viewBox="0 0 302.45 302.05"
   id="svg13"
   sodipodi:docname="like2.svg"
   inkscape:version="1.0.1 (3bc2e813f5, 2020-09-07)"><metadata
   id="metadata17"><rdf:RDF><cc:Work
       rdf:about=""><dc:format>image/svg+xml</dc:format><dc:type
         rdf:resource="http://purl.org/dc/dcmitype/StillImage" /><dc:title></dc:title></cc:Work></rdf:RDF></metadata><sodipodi:namedview
   pagecolor="#ffffff"
   bordercolor="#666666"
   borderopacity="1"
   objecttolerance="10"
   gridtolerance="10"
   guidetolerance="10"
   inkscape:pageopacity="0"
   inkscape:pageshadow="2"
   inkscape:window-width="1440"
   inkscape:window-height="837"
   id="namedview15"
   showgrid="false"
   inkscape:zoom="2.7157293"
   inkscape:cx="-39.76673"
   inkscape:cy="77.197956"
   inkscape:window-x="-8"
   inkscape:window-y="-8"
   inkscape:window-maximized="1"
   inkscape:current-layer="svg13" />
 <defs
   id="defs4">
  <style
   type="text/css"
   id="style2">
   <![CDATA[
    .fil0 {fill:#373435}
   ]]>
  </style>
 </defs>
 <g
   id="Camada_x0020_1"
   style="fill:#848688;fill-opacity:1">
  <metadata
   id="CorelCorpID_0Corel-Layer" />
  <g
   id="_2246941665696"
   style="fill:#848688;fill-opacity:1">
   <path
   class="fil0"
   d="M19.38 132.09l56.45 0 0.3 151.14 -56.91 0 0.16 -151.14zm75.54 6.77c11.96,-1.35 19.79,-8.5 26.94,-16.88l39.52 -48.05c10.82,-13.71 9.77,-36.81 16.28,-49.73 2.06,-4.09 2.9,-5.44 5.74,-5.55 2.63,-0.1 7.19,0.64 9.49,1.29 11.74,3.29 17.63,11.45 18.33,25.45 1.92,38.54 -18.29,42.97 -17.57,69.41 13.49,0 65.42,-1.51 74.23,1.62 7.87,2.8 15.54,12.01 15.74,22.74 0.1,5.46 -1.23,11.54 -3.74,15.62 -1.25,2.03 -2.68,3.92 -4.24,5.01l-6 3.62c2.6,2.1 3.85,3.85 5.05,7.95 1.03,3.51 1.46,7.11 1.46,11 0,10.17 -2.74,16.81 -9.83,22.19 3.78,10.55 5.75,18.54 -2.42,30.48 -2.46,3.61 -3.7,3.76 -6.5,6.55 1.15,12.72 0.85,23.4 -6.15,31.41 -10.93,12.52 -31.89,10.07 -49.91,10.07 -45.21,0 -72.16,-21.05 -106.46,-23.89l0.04 -120.32zm123.38 -42.84c1.64,-5.18 5.57,-11.08 7.72,-17.28 2.3,-6.64 3.73,-12.21 4.12,-19.74 1.41,-27.5 -6.68,-54.58 -38.11,-58.46 -18.08,-2.23 -25.23,2.27 -31.13,15.55 -5.69,12.8 -6.47,24.58 -10.64,38.08 -3.34,10.79 -9.13,13.55 -12.33,17.89l-7.92 9.97c-1.78,2.41 -3.51,4.61 -5.39,6.95 -1.8,2.25 -3.44,4.52 -5.41,6.92 -33.05,40.24 -23.7,21.15 -39.1,17.79 -8.66,-1.89 -37.66,-0.56 -48.38,-0.56 -9.97,0 -29.42,-1.84 -31.3,16.83 -0.84,8.35 -0.15,131.03 -0.15,145.54 -0,14.31 2.16,26.46 21.58,26.53 16.24,0.06 32.49,-0.03 48.73,-0.01 9.19,0.02 12.76,-0.25 18.48,-5.57 5.01,-4.67 5.72,-9.86 5.72,-18.33 10.59,-0.27 40.17,10.87 51.13,14.57 17.54,5.92 36.78,9.32 56.67,9.34 29.11,0.03 57.13,1.64 70.29,-28.4 6.02,-13.74 2.08,-21.97 5.79,-26.91 4.54,-6.07 8.34,-14.04 9.48,-23.69 0.49,-4.14 -0.79,-12.73 0.37,-15.17 1.94,-4.07 3.24,-6.15 4.68,-11.36 4.11,-14.83 -0.68,-26 0.78,-28.85 3.58,-7.01 7.23,-8.66 8.35,-24.33 0.87,-12.16 -2.62,-23.45 -10.01,-31.55 -12.6,-13.8 -20.86,-15.76 -41,-15.76 -11,0 -22,0 -33.01,0z"
   id="path7"
   style="fill:#848688;fill-opacity:1" />
   <path
   class="fil0"
   d="M43.8 241.24c-17.88,4.62 -10.59,32.41 7.37,27.19 17.91,-5.2 10.6,-31.83 -7.37,-27.19z"
   id="path9"
   style="fill:#848688;fill-opacity:1" />
  </g>
 </g>
</svg>
