<?xml version="1.0" encoding="UTF-8"?>
<!DOCTYPE svg PUBLIC "-//W3C//DTD SVG 1.1//EN" "http://www.w3.org/Graphics/SVG/1.1/DTD/svg11.dtd">
<!-- Creator: CorelDRAW 2019 (64 Bit) -->
<svg xmlns="http://www.w3.org/2000/svg" xml:space="preserve" width="17.6016mm" height="15.62mm" version="1.1" style="shape-rendering:geometricPrecision; text-rendering:geometricPrecision; image-rendering:optimizeQuality; fill-rule:evenodd; clip-rule:evenodd"
viewBox="0 0 1728.67 1534.06"
 xmlns:xlink="http://www.w3.org/1999/xlink"
 xmlns:xodm="http://www.corel.com/coreldraw/odm/2003">
 <defs>
  <style type="text/css">
   <![CDATA[
    .fil0 {fill:black}
   ]]>
  </style>
 </defs>
 <g id="Camada_x0020_1">
  <metadata id="CorelCorpID_0Corel-Layer"/>
  <g id="_1671408887264">
   <path class="fil0" d="M1631.92 596.11l4.24 679.7 -435.8 151.16 0.19 -672.08 431.37 -158.78zm-1007.18 91.21l99.09 130.91c19.37,25.18 80.84,101.22 106.47,125.34 30.36,28.57 56.41,13.95 77.7,-9.29 7.69,-8.38 18.31,-21.01 25.77,-30.8l52.91 -62.93c12.35,-15.57 71.1,-87.17 75.96,-98.77 27.93,8.11 41.47,9.04 41.47,25.1 0,93.89 3.44,610.31 -1.01,659.68l-478.14 -168.44 -0.22 -570.79zm-96.22 -100.59l-0.26 671.31 -431.35 158.87 -3.43 -680.08 435.04 -150.1zm335.33 251.19c-6.24,-9.11 -11.78,-14.49 -19.8,-24.03 -87.43,-104.02 -195.02,-249.73 -246.79,-367.31 -20.11,-45.67 -25.6,-87.36 -13.1,-140.11 19.13,-80.69 76.08,-143.8 148.59,-180.39 125.08,-63.12 284.44,-21.84 358.22,74.37 52.75,68.8 82.44,149.62 39.64,248.28 -49.07,113.09 -123.37,208.17 -194.16,300.86l-72.59 88.34zm-352.8 -349.85c-10.6,9.2 -219.67,78.32 -253.3,90.46 -42,15.15 -84.85,29.93 -127.5,44.79 -48.5,16.89 -87.76,23.33 -112.65,59.54 -24.8,36.06 -16.15,107.97 -16.15,156.06l0 604.57c-0.01,34 -5.99,114.29 74.35,83.76l441.77 -162.81c75.08,-27.06 51.9,-24.83 127.72,2.13 85.89,30.54 170.97,59.66 257.2,90.61 41.44,14.87 84.64,29.68 127.29,44.92 44,15.73 86.53,35.62 139.11,31.3 43.8,-3.59 203.66,-65.15 260.58,-84 41.55,-13.77 227.96,-76.27 253.05,-91.48 16.83,-10.21 29.95,-24.32 38.46,-46.15 11.91,-30.53 6.39,-216.6 6.39,-256.7l0.08 -516.97c-0.39,-83.08 -68.33,-53.85 -97.16,-43.78 -122.31,42.69 -253.18,94.46 -377.26,139.62 -21.97,8 -42.49,15.75 -63.99,23.72 -42.55,15.75 -24.94,13.87 -66.99,3.92 16.64,-37.51 57.73,-86.12 92.45,-166.42 30.94,-71.56 43.54,-132.04 22.35,-214.92 -20.1,-78.64 -47.71,-112.49 -94.84,-165.18 -129.07,-144.27 -390.3,-160.51 -550.61,-4.97 -37.75,36.62 -77.44,91.41 -97.46,162.8 -25.89,92.28 -10.59,133.75 17.11,215.19z"/>
   <path class="fil0" d="M794.13 397.23c6.13,34.46 41.18,63.68 84.08,56.32 88.29,-15.14 70.23,-157.34 -27.61,-140.88 -34.42,5.78 -64.1,41.59 -56.47,84.56z"/>
  </g>
 </g>
</svg>
