<?xml version="1.0" encoding="UTF-8" standalone="no"?>
<svg
   xmlns:dc="http://purl.org/dc/elements/1.1/"
   xmlns:cc="http://creativecommons.org/ns#"
   xmlns:rdf="http://www.w3.org/1999/02/22-rdf-syntax-ns#"
   xmlns:svg="http://www.w3.org/2000/svg"
   xmlns="http://www.w3.org/2000/svg"
   xmlns:xlink="http://www.w3.org/1999/xlink"
   xmlns:sodipodi="http://sodipodi.sourceforge.net/DTD/sodipodi-0.dtd"
   xmlns:inkscape="http://www.inkscape.org/namespaces/inkscape"
   version="1.1"
   id="svg833"
   width="145.60001"
   height="193.92"
   viewBox="0 0 145.60001 193.92"
   sodipodi:docname="locality-without-map.svg"
   inkscape:version="1.0.1 (3bc2e813f5, 2020-09-07)">
  <metadata
     id="metadata839">
    <rdf:RDF>
      <cc:Work
         rdf:about="">
        <dc:format>image/svg+xml</dc:format>
        <dc:type
           rdf:resource="http://purl.org/dc/dcmitype/StillImage" />
        <dc:title></dc:title>
      </cc:Work>
    </rdf:RDF>
  </metadata>
  <defs
     id="defs837">
    <linearGradient
       inkscape:collect="always"
       id="linearGradient957">
      <stop
         style="stop-color:#00a198;stop-opacity:1;"
         offset="0"
         id="stop953" />
      <stop
         style="stop-color:#00a198;stop-opacity:0;"
         offset="1"
         id="stop955" />
    </linearGradient>
    <linearGradient
       inkscape:collect="always"
       xlink:href="#linearGradient957"
       id="linearGradient959"
       x1="169.08789"
       y1="96.909833"
       x2="314.5"
       y2="96.909833"
       gradientUnits="userSpaceOnUse" />
  </defs>
  <sodipodi:namedview
     pagecolor="#ffffff"
     bordercolor="#666666"
     borderopacity="1"
     objecttolerance="10"
     gridtolerance="10"
     guidetolerance="10"
     inkscape:pageopacity="0"
     inkscape:pageshadow="2"
     inkscape:window-width="1440"
     inkscape:window-height="837"
     id="namedview835"
     showgrid="false"
     inkscape:zoom="1"
     inkscape:cx="111.18921"
     inkscape:cy="154.9514"
     inkscape:window-x="-8"
     inkscape:window-y="-8"
     inkscape:window-maximized="1"
     inkscape:current-layer="g841"
     inkscape:document-rotation="0" />
  <g
     inkscape:groupmode="layer"
     inkscape:label="Image"
     id="g841" />
  <g
     inkscape:groupmode="layer"
     id="layer1"
     inkscape:label="minhaCamada">
    <g
       id="g964"
       transform="translate(-169)">
      <path
         id="path846"
         style="opacity:1;fill:#00a198;fill-opacity:1;stroke:none;stroke-width:0.342839;stroke-linejoin:round;stroke-miterlimit:4;stroke-dasharray:none;stroke-opacity:1"
         d="m 241.79297,0.16015625 a 72.705841,72.705841 0 0 0 -72.70508,72.70703175 72.705841,72.705841 0 0 0 3.65234,22.753906 l -0.0723,-0.07813 c 0,0 0.34068,1.135971 1.17578,3.189453 0.003,0.0068 0.007,0.01662 0.01,0.02344 a 72.705841,72.705841 0 0 0 7.65039,14.746093 c 0.42875,0.69338 0.87309,1.40035 1.33984,2.12305 7.75,12 51.07813,73.70312 51.07813,73.70312 0,0 3.491,4.41847 7.68945,4.33008 0.0533,-0.001 0.10173,-0.008 0.1543,-0.01 0.0526,0.002 0.10099,0.009 0.15429,0.01 4.19845,0.0884 7.68946,-4.33006 7.68946,-4.33008 0,0 43.32812,-61.70312 51.07812,-73.70312 0.244,-0.3778 0.46764,-0.73946 0.70117,-1.10938 A 72.705841,72.705841 0 0 0 314.5,72.867188 72.705841,72.705841 0 0 0 241.79297,0.16015625 Z M 241.62109,12.394531 a 60.471775,60.471775 0 0 1 0.002,0 60.471775,60.471775 0 0 1 0.16992,0 60.471775,60.471775 0 0 1 60.47265,60.472657 60.471775,60.471775 0 0 1 -10.15234,33.535152 c -0.0113,0.0276 -0.0165,0.0518 -0.0293,0.0801 -1.74371,3.8362 -21.98233,32.79051 -22.5371,33.58399 l -0.76563,1.06836 c 0.0334,-0.0874 0.35352,-0.92188 0.35352,-0.92188 l -27.36914,38.58399 -27.36915,-38.58399 c 0,0 0.32012,0.83448 0.35352,0.92188 l -0.76562,-1.06836 -0.0352,-0.0371 a 72.705841,72.705841 0 0 0 0.44726,0.18359 c -0.0984,-0.14067 -17.15286,-24.53468 -21.67187,-32.00781 a 60.471775,60.471775 0 0 1 -0.004,-0.006 A 60.471775,60.471775 0 0 1 181.32218,72.867078 60.471775,60.471775 0 0 1 241.621,12.394421 Z m -0.0293,24.265625 A 36.206463,36.206463 0 0 0 205.58789,72.867188 36.206463,36.206463 0 0 0 241.79297,109.07422 36.206463,36.206463 0 0 0 278,72.867188 36.206463,36.206463 0 0 0 241.79297,36.660156 a 36.206463,36.206463 0 0 0 -0.20117,0 z m 0.20117,11.978516 a 24.22876,24.22876 0 0 1 24.23047,24.228516 24.22876,24.22876 0 0 1 -24.23047,24.228515 24.22876,24.22876 0 0 1 -24.22852,-24.228515 24.22876,24.22876 0 0 1 24.22852,-24.228516 z m 46.49609,55.761718 c -0.0248,5.1e-4 -0.0513,0.003 -0.0762,0.004 0.36046,-0.009 0.7122,-0.007 1.04688,0.006 -0.31226,-0.0119 -0.63566,-0.0166 -0.97071,-0.01 z m -1.74218,0.11133 c -0.56142,0.0487 -1.12241,0.0989 -1.66016,0.16797 0.53601,-0.0686 1.10079,-0.11968 1.66016,-0.16797 z m 5.66992,1.55859 c -0.0202,0.0993 -0.0536,0.20427 -0.0977,0.31446 0.044,-0.10995 0.0775,-0.2154 0.0977,-0.31446 z" />
      <path
         id="path951"
         style="opacity:1;fill:url(#linearGradient959);fill-opacity:1;stroke:none;stroke-width:0.342839;stroke-linejoin:round;stroke-miterlimit:4;stroke-dasharray:none;stroke-opacity:1"
         d="m 241.79297,0.16015625 a 72.705841,72.705841 0 0 0 -72.70508,72.70703175 72.705841,72.705841 0 0 0 3.65234,22.753906 l -0.0723,-0.07813 c 0,0 0.34068,1.135971 1.17578,3.189453 0.003,0.0068 0.007,0.01662 0.01,0.02344 a 72.705841,72.705841 0 0 0 7.65039,14.746093 c 0.42875,0.69338 0.87309,1.40035 1.33984,2.12305 7.75,12 51.07813,73.70312 51.07813,73.70312 0,0 3.491,4.41847 7.68945,4.33008 0.0533,-0.001 0.10173,-0.008 0.1543,-0.01 0.0526,0.002 0.10099,0.009 0.15429,0.01 4.19845,0.0884 7.68946,-4.33006 7.68946,-4.33008 0,0 43.32812,-61.70312 51.07812,-73.70312 0.244,-0.3778 0.46764,-0.73946 0.70117,-1.10938 A 72.705841,72.705841 0 0 0 314.5,72.867188 72.705841,72.705841 0 0 0 241.79297,0.16015625 Z M 241.62109,12.394531 a 60.471775,60.471775 0 0 1 0.002,0 60.471775,60.471775 0 0 1 0.16992,0 60.471775,60.471775 0 0 1 60.47265,60.472657 60.471775,60.471775 0 0 1 -10.15234,33.535152 c -0.0113,0.0276 -0.0165,0.0518 -0.0293,0.0801 -1.74371,3.8362 -21.98233,32.79051 -22.5371,33.58399 l -0.76563,1.06836 c 0.0334,-0.0874 0.35352,-0.92188 0.35352,-0.92188 l -27.36914,38.58399 -27.36915,-38.58399 c 0,0 0.32012,0.83448 0.35352,0.92188 l -0.76562,-1.06836 -0.0352,-0.0371 a 72.705841,72.705841 0 0 0 0.44726,0.18359 c -0.0984,-0.14067 -17.15286,-24.53468 -21.67187,-32.00781 a 60.471775,60.471775 0 0 1 -0.004,-0.006 A 60.471775,60.471775 0 0 1 181.32218,72.867078 60.471775,60.471775 0 0 1 241.621,12.394421 Z m -0.0293,24.265625 A 36.206463,36.206463 0 0 0 205.58789,72.867188 36.206463,36.206463 0 0 0 241.79297,109.07422 36.206463,36.206463 0 0 0 278,72.867188 36.206463,36.206463 0 0 0 241.79297,36.660156 a 36.206463,36.206463 0 0 0 -0.20117,0 z m 0.20117,11.978516 a 24.22876,24.22876 0 0 1 24.23047,24.228516 24.22876,24.22876 0 0 1 -24.23047,24.228515 24.22876,24.22876 0 0 1 -24.22852,-24.228515 24.22876,24.22876 0 0 1 24.22852,-24.228516 z m 46.49609,55.761718 c -0.0248,5.1e-4 -0.0513,0.003 -0.0762,0.004 0.36046,-0.009 0.7122,-0.007 1.04688,0.006 -0.31226,-0.0119 -0.63566,-0.0166 -0.97071,-0.01 z m -1.74218,0.11133 c -0.56142,0.0487 -1.12241,0.0989 -1.66016,0.16797 0.53601,-0.0686 1.10079,-0.11968 1.66016,-0.16797 z m 5.66992,1.55859 c -0.0202,0.0993 -0.0536,0.20427 -0.0977,0.31446 0.044,-0.10995 0.0775,-0.2154 0.0977,-0.31446 z" />
    </g>
  </g>
</svg>
