<?xml version="1.0" encoding="UTF-8" standalone="no"?>
<svg
   xmlns:dc="http://purl.org/dc/elements/1.1/"
   xmlns:cc="http://creativecommons.org/ns#"
   xmlns:rdf="http://www.w3.org/1999/02/22-rdf-syntax-ns#"
   xmlns:svg="http://www.w3.org/2000/svg"
   xmlns="http://www.w3.org/2000/svg"
   xmlns:sodipodi="http://sodipodi.sourceforge.net/DTD/sodipodi-0.dtd"
   xmlns:inkscape="http://www.inkscape.org/namespaces/inkscape"
   version="1.1"
   id="svg833"
   width="221.75999"
   height="263.67999"
   viewBox="0 0 221.75999 263.67999"
   sodipodi:docname="logomark-white2.svg"
   inkscape:version="1.0.1 (3bc2e813f5, 2020-09-07)">
  <metadata
     id="metadata839">
    <rdf:RDF>
      <cc:Work
         rdf:about="">
        <dc:format>image/svg+xml</dc:format>
        <dc:type
           rdf:resource="http://purl.org/dc/dcmitype/StillImage" />
        <dc:title></dc:title>
      </cc:Work>
    </rdf:RDF>
  </metadata>
  <defs
     id="defs837" />
  <sodipodi:namedview
     pagecolor="#ffffff"
     bordercolor="#666666"
     borderopacity="1"
     objecttolerance="10"
     gridtolerance="10"
     guidetolerance="10"
     inkscape:pageopacity="0"
     inkscape:pageshadow="2"
     inkscape:window-width="1440"
     inkscape:window-height="837"
     id="namedview835"
     showgrid="false"
     inkscape:zoom="1.1908374"
     inkscape:cx="162.79935"
     inkscape:cy="108.77487"
     inkscape:window-x="-8"
     inkscape:window-y="-8"
     inkscape:window-maximized="1"
     inkscape:current-layer="layer2"
     inkscape:document-rotation="0" />
  <g
     inkscape:groupmode="layer"
     id="layer1"
     inkscape:label="fundo" />
  <g
     inkscape:groupmode="layer"
     inkscape:label="Image"
     id="g841" />
  <g
     inkscape:groupmode="layer"
     id="layer2"
     inkscape:label="minhaCamada"
     style="display:inline">
    <g
       id="g875"
       style="fill:#ffffff">
      <g
         id="Camada_x0020_1"
         style="clip-rule:evenodd;fill:#ffffff;fill-rule:evenodd;image-rendering:optimizeQuality;shape-rendering:geometricPrecision;text-rendering:geometricPrecision"
         transform="matrix(1.2610113,0,0,1.2599552,-0.01727802,0.08443325)">
        <metadata
           id="CorelCorpID_0Corel-Layer" />
        <path
           class="fil22"
           d="m 48.15,9.32 c -2.58,1.47 -6.29,3.68 -9.65,5.9 -3.37,2.22 -6.4,4.43 -9.09,6.74 -2.69,2.31 -5.04,4.7 -7.08,7.03 -2.03,2.33 -3.75,4.59 -5.2,6.51 -1.45,1.92 -2.62,3.5 -3.89,5.54 -1.27,2.03 -2.62,4.52 -3.84,7.03 -1.22,2.51 -2.31,5.04 -3.5,8.21 -1.2,3.16 -2.51,6.96 -3.42,10.49 -0.9,3.53 -1.4,6.78 -1.76,10.04 -0.36,3.26 -0.59,6.51 -0.68,9.58 -0.09,3.08 -0.04,5.97 0.2,9.09 0.25,3.12 0.7,6.47 1.24,9.5 0.54,3.03 1.18,5.74 2.04,9.02 0.86,3.28 1.94,7.12 3.05,10.51 1.11,3.39 2.24,6.33 3.62,9.29 1.38,2.96 3.01,5.94 4.75,8.79 1.74,2.85 3.6,5.56 5.79,8.48 2.19,2.91 4.72,6.04 7.28,8.84 2.55,2.8 5.13,5.29 7.96,7.8 2.83,2.51 5.9,5.04 9.13,7.44 3.23,2.4 6.62,4.66 15.85,10.31 9.22,5.65 24.28,14.69 31.81,19.23 7.53,4.54 7.53,4.59 7.53,4.61 0,0.02 0,0.02 0.02,-7.75 0.02,-7.78 0.07,-23.33 0.09,-31.11 0.02,-7.78 0.02,-7.78 0.02,-7.78 0,0 0,0 2.56,-0.36 2.56,-0.36 7.66,-1.09 12,-1.92 4.34,-0.84 7.91,-1.79 11.96,-3.41 4.05,-1.63 8.57,-3.93 12.46,-6.17 3.89,-2.24 7.14,-4.41 10.28,-6.92 3.14,-2.51 6.17,-5.36 8.68,-8.14 2.51,-2.78 4.5,-5.49 6.35,-8.34 1.85,-2.85 3.57,-5.83 4.9,-8.82 1.34,-2.98 2.28,-5.97 3.08,-8.79 0.79,-2.82 1.42,-5.49 1.94,-8.07 0.52,-2.58 0.92,-5.07 1.11,-7.71 0.18,-2.65 0.13,-5.45 0,-8.57 -0.14,-3.12 -0.36,-6.56 -0.81,-10.04 -0.45,-3.48 -1.13,-7.01 -2.06,-10.53 -0.93,-3.53 -2.1,-7.05 -3.66,-10.69 -1.56,-3.64 -3.5,-7.39 -5.9,-11.28 -2.4,-3.89 -5.24,-7.91 -8.02,-11.3 -2.78,-3.39 -5.49,-6.15 -8.64,-8.93 -3.14,-2.78 -6.71,-5.58 -9.9,-7.85 -3.19,-2.26 -5.99,-3.98 -9.11,-5.6 C 124.52,7.59 121.09,6.06 117.83,4.86 114.57,3.66 111.5,2.8 108.24,2.08 104.99,1.36 101.55,0.77 98.05,0.43 94.54,0.09 90.97,0 87.08,0.03 83.19,0.05 78.99,0.19 75.14,0.69 71.3,1.19 67.82,2.05 64.29,3.06 60.76,4.08 57.19,5.25 54.68,6.2 52.17,7.15 50.72,7.87 48.15,9.34 Z m 4.62,12.46 c -3.35,1.9 -7.09,4.22 -10.43,6.82 -3.34,2.61 -6.29,5.5 -8.74,8.14 -2.45,2.63 -4.4,5 -6.19,7.53 -1.79,2.53 -3.43,5.21 -4.71,7.61 -1.29,2.4 -2.24,4.51 -3.34,7.43 -1.11,2.92 -2.37,6.66 -3.29,10.14 -0.92,3.48 -1.5,6.69 -1.79,10.09 -0.29,3.4 -0.29,6.98 -0.16,10.48 0.13,3.51 0.4,6.93 0.89,10.54 0.5,3.61 1.24,7.4 2.14,10.8 0.89,3.4 1.95,6.4 3.19,9.59 1.24,3.19 2.66,6.56 4.24,9.77 1.58,3.21 3.32,6.27 5.51,9.48 2.18,3.21 4.82,6.58 8.19,10.24 3.37,3.66 7.48,7.61 11.32,10.9 3.84,3.29 7.43,5.93 11.38,8.45 3.95,2.53 8.27,4.95 10.43,6.16 2.16,1.21 17.48,9.38 17.48,9.38 0,0 -0.05,-7.47 0,-12.66 0.05,-5.19 -0.05,-15.63 0,-20.81 0.05,-5.19 0,-5.56 0,-5.56 0,0 -1.4,-0.05 0,0 1.4,0.05 -3.05,-0.05 0,0 3.06,0.05 0.01,0.05 3.72,-0.13 3.71,-0.18 7.82,-0.55 12.11,-1.24 4.29,-0.69 8.77,-1.69 12.51,-2.66 3.74,-0.97 6.74,-1.92 9.51,-3.05 2.77,-1.13 5.29,-2.45 8.01,-4.06 2.71,-1.61 5.61,-3.5 7.88,-5.32 2.27,-1.82 3.9,-3.56 5.64,-5.5 1.74,-1.95 3.58,-4.11 5.14,-6.37 1.55,-2.26 2.82,-4.64 3.87,-6.96 1.05,-2.31 1.89,-4.58 2.58,-7.08 0.68,-2.5 1.21,-5.24 1.55,-7.98 0.34,-2.74 0.5,-5.48 0.5,-8.67 0,-3.19 -0.16,-6.82 -0.66,-10.64 -0.5,-3.82 -1.34,-7.82 -2.45,-11.67 -1.11,-3.84 -2.48,-7.53 -3.93,-10.64 -1.45,-3.1 -2.97,-5.63 -4.71,-8.21 -1.74,-2.58 -3.69,-5.21 -5.77,-7.64 -2.08,-2.42 -4.29,-4.64 -6.35,-6.51 -2.05,-1.87 -3.95,-3.4 -6.35,-5.11 -2.4,-1.71 -5.29,-3.61 -7.93,-5.11 -2.63,-1.5 -5.01,-2.61 -8.09,-3.77 -3.08,-1.16 -6.87,-2.37 -10.14,-3.27 -3.26,-0.89 -6,-1.47 -9.09,-1.82 -3.08,-0.34 -6.5,-0.45 -10.01,-0.34 -3.5,0.1 -7.08,0.42 -11.17,1.18 -4.08,0.76 -8.66,1.98 -12.43,3.32 -3.77,1.34 -6.72,2.82 -10.06,4.71 z"
           style="fill:#ffffff" />
      </g>
      <circle
         style="opacity:1;fill:#ffffff;stroke:none;stroke-width:0.179128;stroke-linejoin:round"
         class="fil2"
         cx="110.93058"
         cy="106.9346"
         r="17.448254" />
      <circle
         style="opacity:1;fill:#ffffff;stroke:none;stroke-width:0.179128;stroke-linejoin:round"
         class="fil2"
         cx="156.90663"
         cy="106.9346"
         r="17.448254" />
      <circle
         style="opacity:1;fill:#ffffff;stroke:none;stroke-width:0.179128;stroke-linejoin:round"
         class="fil2"
         cx="64.954529"
         cy="106.9346"
         r="17.448254" />
    </g>
  </g>
</svg>
