<?xml version="1.0" encoding="UTF-8" standalone="no"?>
<svg
   xmlns:dc="http://purl.org/dc/elements/1.1/"
   xmlns:cc="http://creativecommons.org/ns#"
   xmlns:rdf="http://www.w3.org/1999/02/22-rdf-syntax-ns#"
   xmlns:svg="http://www.w3.org/2000/svg"
   xmlns="http://www.w3.org/2000/svg"
   xmlns:xlink="http://www.w3.org/1999/xlink"
   xmlns:sodipodi="http://sodipodi.sourceforge.net/DTD/sodipodi-0.dtd"
   xmlns:inkscape="http://www.inkscape.org/namespaces/inkscape"
   version="1.1"
   id="svg849"
   width="94.080002"
   height="64.32"
   viewBox="0 0 94.080002 64.32"
   sodipodi:docname="aspas2.svg"
   inkscape:version="1.0.1 (3bc2e813f5, 2020-09-07)">
  <metadata
     id="metadata855">
    <rdf:RDF>
      <cc:Work
         rdf:about="">
        <dc:format>image/svg+xml</dc:format>
        <dc:type
           rdf:resource="http://purl.org/dc/dcmitype/StillImage" />
        <dc:title></dc:title>
      </cc:Work>
    </rdf:RDF>
  </metadata>
  <defs
     id="defs853">
    <linearGradient
       inkscape:collect="always"
       id="linearGradient959">
      <stop
         style="stop-color:#00a198;stop-opacity:1;"
         offset="0"
         id="stop955" />
      <stop
         style="stop-color:#00a198;stop-opacity:0;"
         offset="1"
         id="stop957" />
    </linearGradient>
    <linearGradient
       inkscape:collect="always"
       xlink:href="#linearGradient959"
       id="linearGradient961"
       x1="2.7334988"
       y1="99.065907"
       x2="93.81857"
       y2="99.065907"
       gradientUnits="userSpaceOnUse" />
    <linearGradient
       inkscape:collect="always"
       xlink:href="#linearGradient959"
       id="linearGradient971"
       gradientUnits="userSpaceOnUse"
       x1="2.7334988"
       y1="99.065907"
       x2="93.81857"
       y2="99.065907" />
    <linearGradient
       inkscape:collect="always"
       xlink:href="#linearGradient959"
       id="linearGradient973"
       gradientUnits="userSpaceOnUse"
       x1="2.7334988"
       y1="99.065907"
       x2="93.81857"
       y2="99.065907" />
  </defs>
  <sodipodi:namedview
     pagecolor="#ffffff"
     bordercolor="#666666"
     borderopacity="1"
     objecttolerance="10"
     gridtolerance="10"
     guidetolerance="10"
     inkscape:pageopacity="0"
     inkscape:pageshadow="2"
     inkscape:window-width="1440"
     inkscape:window-height="837"
     id="namedview851"
     showgrid="false"
     inkscape:zoom="4.7831632"
     inkscape:cx="82.080822"
     inkscape:cy="57.022655"
     inkscape:window-x="-8"
     inkscape:window-y="-8"
     inkscape:window-maximized="1"
     inkscape:current-layer="g857" />
  <g
     inkscape:groupmode="layer"
     inkscape:label="Image"
     id="g857">
    <g
       id="g969"
       transform="translate(0,-66.901334)">
      <g
         id="g877"
         style="fill:#00a198;fill-opacity:1">
        <path
           style="fill:#00a198;fill-opacity:1;stroke:none;stroke-width:0.188976;stroke-linecap:butt;stroke-linejoin:round;stroke-miterlimit:4;stroke-dasharray:none;stroke-opacity:1"
           d="m 38.102401,67.058135 1.4112,3.188266 c 0,0 -7.003734,2.1952 -11.237334,6.742401 -4.2336,4.547199 -3.554133,3.606399 -4.965333,6.271999 -1.4112,2.6656 -1.8816,3.554134 -2.1952,4.808534 -0.3136,1.2544 -0.6272,2.352 -0.6272,2.352 0,0 2.167828,-0.214055 4.682413,-0.07064 1.762588,0.100529 3.954253,0.562125 5.430417,1.087209 3.456656,1.229561 7.428537,3.298684 10.366707,7.530388 1.045139,1.505258 1.987928,3.339828 2.575118,4.912988 1.063561,2.84943 1.075922,5.67962 1.139173,7.32015 0.04037,1.04697 -0.140162,2.48491 -0.53247,4.13573 -0.358889,1.51019 -0.755652,3.05276 -1.535063,4.62314 -0.65972,1.32921 -1.593056,2.7448 -2.578561,3.85943 -1.413481,1.59868 -2.714316,2.81145 -4.437863,3.84715 -2.333932,1.40247 -4.075378,2.22764 -6.513862,2.71997 -1.177104,0.23766 -3.108342,0.6141 -5.301514,0.6777 -2.00041,0.058 -4.228051,-0.15977 -6.114424,-0.67103 -1.755974,-0.47592 -3.523118,-1.22101 -4.975943,-2.14445 -1.818989,-1.15619 -3.4510838,-2.50651 -4.1993285,-3.3056 -1.3458672,-1.43733 -3.2265381,-4.25208 -3.8537381,-5.74168 -0.6272,-1.4896 -1.7753415,-5.17306 -1.8862158,-8.3145 -0.1108744,-3.14144 0.2321614,-9.41604 1.2774948,-12.813372 1.0453333,-3.397334 3.0251257,-8.227517 5.1157924,-11.46805 2.0906672,-3.240533 4.6756682,-6.079671 7.3366522,-8.629781 2.660985,-2.55011 5.808415,-4.489152 7.350281,-5.482219 1.541867,-0.993067 6.193601,-3.109867 8.075201,-3.7632 1.8816,-0.653333 3.789333,-1.149867 4.913066,-1.385067 1.123734,-0.2352 1.280534,-0.287466 1.280534,-0.287466 z"
           id="path871"
           sodipodi:nodetypes="ccssscssssssssssssssssssssssc" />
        <path
           style="fill:#00a198;fill-opacity:1;stroke:none;stroke-width:0.188976;stroke-linecap:butt;stroke-linejoin:round;stroke-miterlimit:4;stroke-dasharray:none;stroke-opacity:1"
           d="m 87.233069,67.058135 1.4112,3.188266 c 0,0 -7.003734,2.1952 -11.237334,6.742401 -4.2336,4.547199 -3.554133,3.606399 -4.965333,6.271999 -1.4112,2.6656 -1.8816,3.554134 -2.1952,4.808534 -0.3136,1.2544 -0.6272,2.352 -0.6272,2.352 0,0 2.167828,-0.214055 4.682413,-0.07064 1.762588,0.100529 3.954253,0.562125 5.430417,1.087209 3.456656,1.229561 7.428537,3.298684 10.366707,7.530388 1.045139,1.505258 1.987928,3.339828 2.575118,4.912988 1.063561,2.84943 1.075922,5.67962 1.139173,7.32015 0.04037,1.04697 -0.140162,2.48491 -0.53247,4.13573 -0.358889,1.51019 -0.755652,3.05276 -1.535063,4.62314 -0.65972,1.32921 -1.593056,2.7448 -2.578561,3.85943 -1.413481,1.59868 -2.714316,2.81145 -4.437863,3.84715 -2.333932,1.40247 -4.075378,2.22764 -6.513862,2.71997 -1.177104,0.23766 -3.108342,0.6141 -5.301514,0.6777 -2.00041,0.058 -4.228051,-0.15977 -6.114424,-0.67103 -1.755974,-0.47592 -3.523118,-1.22101 -4.975943,-2.14445 -1.818989,-1.15619 -3.451084,-2.50651 -4.199329,-3.3056 -1.345867,-1.43733 -3.226538,-4.25208 -3.853738,-5.74168 -0.6272,-1.4896 -1.775342,-5.17306 -1.886216,-8.3145 -0.110874,-3.14144 0.232162,-9.41604 1.277495,-12.813372 1.045333,-3.397334 3.025126,-8.227517 5.115792,-11.46805 2.090668,-3.240533 4.675669,-6.079671 7.336653,-8.629781 2.660985,-2.55011 5.808415,-4.489152 7.350281,-5.482219 1.541867,-0.993067 6.193601,-3.109867 8.075201,-3.7632 1.8816,-0.653333 3.789333,-1.149867 4.913066,-1.385067 1.123734,-0.2352 1.280534,-0.287466 1.280534,-0.287466 z"
           id="path873"
           sodipodi:nodetypes="ccssscssssssssssssssssssssssc" />
      </g>
      <g
         id="g953"
         style="fill:url(#linearGradient961);fill-opacity:1">
        <path
           style="fill:url(#linearGradient971);fill-opacity:1;stroke:none;stroke-width:0.188976;stroke-linecap:butt;stroke-linejoin:round;stroke-miterlimit:4;stroke-dasharray:none;stroke-opacity:1"
           d="m 38.102401,67.058135 1.4112,3.188266 c 0,0 -7.003734,2.1952 -11.237334,6.742401 -4.2336,4.547199 -3.554133,3.606399 -4.965333,6.271999 -1.4112,2.6656 -1.8816,3.554134 -2.1952,4.808534 -0.3136,1.2544 -0.6272,2.352 -0.6272,2.352 0,0 2.167828,-0.214055 4.682413,-0.07064 1.762588,0.100529 3.954253,0.562125 5.430417,1.087209 3.456656,1.229561 7.428537,3.298684 10.366707,7.530388 1.045139,1.505258 1.987928,3.339828 2.575118,4.912988 1.063561,2.84943 1.075922,5.67962 1.139173,7.32015 0.04037,1.04697 -0.140162,2.48491 -0.53247,4.13573 -0.358889,1.51019 -0.755652,3.05276 -1.535063,4.62314 -0.65972,1.32921 -1.593056,2.7448 -2.578561,3.85943 -1.413481,1.59868 -2.714316,2.81145 -4.437863,3.84715 -2.333932,1.40247 -4.075378,2.22764 -6.513862,2.71997 -1.177104,0.23766 -3.108342,0.6141 -5.301514,0.6777 -2.00041,0.058 -4.228051,-0.15977 -6.114424,-0.67103 -1.755974,-0.47592 -3.523118,-1.22101 -4.975943,-2.14445 -1.818989,-1.15619 -3.4510838,-2.50651 -4.1993285,-3.3056 -1.3458672,-1.43733 -3.2265381,-4.25208 -3.8537381,-5.74168 -0.6272,-1.4896 -1.7753415,-5.17306 -1.8862158,-8.3145 -0.1108744,-3.14144 0.2321614,-9.41604 1.2774948,-12.813372 1.0453333,-3.397334 3.0251257,-8.227517 5.1157924,-11.46805 2.0906672,-3.240533 4.6756682,-6.079671 7.3366522,-8.629781 2.660985,-2.55011 5.808415,-4.489152 7.350281,-5.482219 1.541867,-0.993067 6.193601,-3.109867 8.075201,-3.7632 1.8816,-0.653333 3.789333,-1.149867 4.913066,-1.385067 1.123734,-0.2352 1.280534,-0.287466 1.280534,-0.287466 z"
           id="path949"
           sodipodi:nodetypes="ccssscssssssssssssssssssssssc" />
        <path
           style="fill:url(#linearGradient973);fill-opacity:1;stroke:none;stroke-width:0.188976;stroke-linecap:butt;stroke-linejoin:round;stroke-miterlimit:4;stroke-dasharray:none;stroke-opacity:1"
           d="m 87.233069,67.058135 1.4112,3.188266 c 0,0 -7.003734,2.1952 -11.237334,6.742401 -4.2336,4.547199 -3.554133,3.606399 -4.965333,6.271999 -1.4112,2.6656 -1.8816,3.554134 -2.1952,4.808534 -0.3136,1.2544 -0.6272,2.352 -0.6272,2.352 0,0 2.167828,-0.214055 4.682413,-0.07064 1.762588,0.100529 3.954253,0.562125 5.430417,1.087209 3.456656,1.229561 7.428537,3.298684 10.366707,7.530388 1.045139,1.505258 1.987928,3.339828 2.575118,4.912988 1.063561,2.84943 1.075922,5.67962 1.139173,7.32015 0.04037,1.04697 -0.140162,2.48491 -0.53247,4.13573 -0.358889,1.51019 -0.755652,3.05276 -1.535063,4.62314 -0.65972,1.32921 -1.593056,2.7448 -2.578561,3.85943 -1.413481,1.59868 -2.714316,2.81145 -4.437863,3.84715 -2.333932,1.40247 -4.075378,2.22764 -6.513862,2.71997 -1.177104,0.23766 -3.108342,0.6141 -5.301514,0.6777 -2.00041,0.058 -4.228051,-0.15977 -6.114424,-0.67103 -1.755974,-0.47592 -3.523118,-1.22101 -4.975943,-2.14445 -1.818989,-1.15619 -3.451084,-2.50651 -4.199329,-3.3056 -1.345867,-1.43733 -3.226538,-4.25208 -3.853738,-5.74168 -0.6272,-1.4896 -1.775342,-5.17306 -1.886216,-8.3145 -0.110874,-3.14144 0.232162,-9.41604 1.277495,-12.813372 1.045333,-3.397334 3.025126,-8.227517 5.115792,-11.46805 2.090668,-3.240533 4.675669,-6.079671 7.336653,-8.629781 2.660985,-2.55011 5.808415,-4.489152 7.350281,-5.482219 1.541867,-0.993067 6.193601,-3.109867 8.075201,-3.7632 1.8816,-0.653333 3.789333,-1.149867 4.913066,-1.385067 1.123734,-0.2352 1.280534,-0.287466 1.280534,-0.287466 z"
           id="path951"
           sodipodi:nodetypes="ccssscssssssssssssssssssssssc" />
      </g>
    </g>
  </g>
</svg>
