<?xml version="1.0" encoding="UTF-8" standalone="no"?>
<svg
   xmlns:dc="http://purl.org/dc/elements/1.1/"
   xmlns:cc="http://creativecommons.org/ns#"
   xmlns:rdf="http://www.w3.org/1999/02/22-rdf-syntax-ns#"
   xmlns:svg="http://www.w3.org/2000/svg"
   xmlns="http://www.w3.org/2000/svg"
   xmlns:sodipodi="http://sodipodi.sourceforge.net/DTD/sodipodi-0.dtd"
   xmlns:inkscape="http://www.inkscape.org/namespaces/inkscape"
   xml:space="preserve"
   width="24.1693mm"
   height="24.1721mm"
   version="1.1"
   style="shape-rendering:geometricPrecision; text-rendering:geometricPrecision; image-rendering:optimizeQuality; fill-rule:evenodd; clip-rule:evenodd"
   viewBox="0 0 450.97 451.03"
   id="svg10"
   sodipodi:docname="user2.svg"
   inkscape:version="1.0.1 (3bc2e813f5, 2020-09-07)"><metadata
   id="metadata14"><rdf:RDF><cc:Work
       rdf:about=""><dc:format>image/svg+xml</dc:format><dc:type
         rdf:resource="http://purl.org/dc/dcmitype/StillImage" /><dc:title></dc:title></cc:Work></rdf:RDF></metadata><sodipodi:namedview
   pagecolor="#ffffff"
   bordercolor="#666666"
   borderopacity="1"
   objecttolerance="10"
   gridtolerance="10"
   guidetolerance="10"
   inkscape:pageopacity="0"
   inkscape:pageshadow="2"
   inkscape:window-width="1440"
   inkscape:window-height="837"
   id="namedview12"
   showgrid="false"
   inkscape:zoom="6.8739718"
   inkscape:cx="45.674268"
   inkscape:cy="50.782962"
   inkscape:window-x="-8"
   inkscape:window-y="-8"
   inkscape:window-maximized="1"
   inkscape:current-layer="svg10" />
 <defs
   id="defs4">
  <style
   type="text/css"
   id="style2">
   <![CDATA[
    .fil0 {fill:#373435}
   ]]>
  </style>
 </defs>
 <g
   id="Camada_x0020_1"
   style="fill:#ffffff;fill-opacity:1">
  <metadata
   id="CorelCorpID_0Corel-Layer" />
  <path
   class="fil0"
   d="M109.04 382.31c0,-17.35 0.01,-27.17 8.24,-40.71 3.08,-5.07 6.5,-10.06 10.54,-13.26 17.57,-13.89 30.43,-19.28 54.44,-12.09 73.55,22.03 85.85,-15.53 125.46,1.84 11.89,5.21 19.79,13.41 25.6,22.92 8.57,14.02 8.6,23.35 8.6,41.3 -1.88,7.09 -45.41,26.07 -50.41,28.02 -54.45,21.24 -122.2,12.42 -171.03,-19l-10.53 -7.75c-0.17,-0.2 -0.68,-1.04 -0.9,-1.27zm66.43 -191.02c-5.3,-31.03 15.86,-54.95 40.76,-59.54 45.97,-8.47 78.05,44.55 49.26,81.48 -6.78,8.7 -15.89,15.86 -31.56,18.82 -29.7,5.63 -54.34,-16.61 -58.46,-40.76zm40.47 -88.8c-24.5,3.41 -41.54,15.4 -51.98,28.24 -46.69,57.43 1.12,139.35 71.53,130.34 40.66,-5.2 75.39,-42.12 69.32,-89.17 -5.83,-45.15 -47.44,-75.18 -88.87,-69.41zm153.75 255c-5.32,-18.3 -6.03,-24.83 -16.65,-39.09 -7.83,-10.5 -19.15,-19.91 -31.1,-25.88 -40.94,-20.46 -57.85,1.58 -96.47,1.59 -39.03,0.01 -53.8,-21.87 -95.83,-1.9 -12.35,5.87 -23.15,15.12 -31.33,25.64 -10.68,13.73 -11.73,21.32 -17.05,39.64 -8.57,-6.57 -23.59,-28.53 -30.19,-42.16 -28.03,-57.8 -30.35,-117 -2.68,-174.72 9.76,-20.36 16.01,-26.66 28.54,-43.7l17.88 -18.2c5.23,-4.74 14.03,-11.18 20.56,-15.6 67.32,-45.59 152.89,-45.59 220.21,0 17.96,12.16 16.74,12.12 29.37,24.82 2.86,2.87 6.67,5.72 9.07,8.98 4.98,6.77 10.27,13.42 15.39,20.74 27.85,39.82 38.03,93.06 29.17,144.17 -5.17,29.84 -28.3,79.87 -48.9,95.67zm-368.89 -113.93c5.83,66.35 38.27,124.29 90.2,162.99 15.48,11.54 36,23.51 54.62,29.95 79.57,27.55 152.83,15.7 219.16,-33.67 13.58,-10.11 31.58,-29.22 41.74,-42.85 11.52,-15.45 23.52,-36.04 29.95,-54.62 10.63,-30.71 16.77,-61.71 13.71,-97.58 -2.85,-33.33 -11.41,-61.2 -25.23,-87.66 -16.42,-31.44 -28.64,-40.86 -49.37,-62.81 -4.27,-4.52 -10.69,-9.17 -15.64,-12.85 -42.9,-31.91 -97.19,-48.36 -152.19,-43.66 -74.16,6.33 -136.62,45.72 -174.82,107.24 -23.99,38.63 -36.3,88.14 -32.14,135.53z"
   id="path7"
   style="fill-opacity:1" />
 </g>
</svg>
