<?xml version="1.0" encoding="UTF-8"?>
<!DOCTYPE svg PUBLIC "-//W3C//DTD SVG 1.1//EN" "http://www.w3.org/Graphics/SVG/1.1/DTD/svg11.dtd">
<!-- Creator: CorelDRAW 2020 (64 Bit) -->
<svg xmlns="http://www.w3.org/2000/svg" xml:space="preserve" width="37.1313mm" height="33.4196mm" version="1.1" style="shape-rendering:geometricPrecision; text-rendering:geometricPrecision; image-rendering:optimizeQuality; fill-rule:evenodd; clip-rule:evenodd"
viewBox="0 0 355.45 319.92"
 xmlns:xlink="http://www.w3.org/1999/xlink"
 xmlns:xodm="http://www.corel.com/coreldraw/odm/2003"
 aria-hidden="true"
 focusable="false"
 data-prefix="fab"
 data-icon="waze"
 role="img">
 <defs>
  <style type="text/css">
   <![CDATA[
    .fil0 {fill:url(#id0)}
   ]]>
  </style>
  <linearGradient id="id0" gradientUnits="userSpaceOnUse" x1="296.62" y1="280.05" x2="58.83" y2="39.87">
   <stop offset="0" style="stop-opacity:1; stop-color:#DB4B1F"/>
   <stop offset="0.509804" style="stop-opacity:1; stop-color:#E86829"/>
   <stop offset="1" style="stop-opacity:1; stop-color:#F58634"/>
  </linearGradient>
 </defs>
 <g id="Camada_x0020_1">
  <metadata id="CorelCorpID_0Corel-Layer"/>
  <g id="_1945914085776">
   <path class="fil0" d="M353.54 121.16c10.37,61.31 -22.1,119.91 -80.82,148.63 9.28,24.35 -8.85,50.13 -34.51,50.13 -19.62,-0.01 -35.81,-15.39 -36.83,-34.99 -4.6,0.13 -45.85,0 -54.51,-0.46 -0.8,19.79 -17.08,35.42 -36.88,35.42 -0.51,0 -1.02,-0.01 -1.52,-0.03 -24.18,-0.97 -41.38,-24.88 -33.56,-48.5 -26.57,-9.36 -51.8,-24.9 -71.14,-50.56 -9.28,-12.34 -0.34,-29.85 14.88,-29.85 33.07,0 23.01,-38.68 30.81,-78.74 13.16,-67.08 83.37,-112.22 151.19,-112.22 73.18,0 140.79,50.47 152.88,121.16zm-91.88 133.26c29.99,-13.7 58.08,-40.5 68.76,-72.94 28.91,-87.9 -45.81,-162.82 -129.76,-162.82 -59.59,0 -121.63,39.58 -132.87,97.12 -6.81,34.93 3.57,93.8 -49.1,93.8 17.81,23.64 41.65,37.58 66.93,45.74 17.61,-15.57 45.61,-11.05 57.01,10.24 10.15,0.71 56.55,0.84 62.77,0.59 6.31,-12.33 19,-20.09 32.86,-20.09 8.53,0 16.8,2.96 23.4,8.36l-0 0zm-120.25 -143.64c0,-24.81 36.31,-24.81 36.31,0 0,24.82 -36.31,24.81 -36.31,0zm83.25 0c0,-24.81 36.32,-24.81 36.32,0 0,24.82 -36.32,24.82 -36.32,0zm-87.56 50.48c-2.46,-12.1 15.84,-15.84 18.3,-3.72l0.04 0.2c2.96,15.3 21.32,31.42 45.79,30.76 25.48,-0.67 42.31,-15.86 45.78,-30.54 3.18,-11.46 20.42,-7.4 18.19,4.28 -3.73,15.84 -22.29,44.27 -65.31,44.92 -30.39,0 -57.76,-19.88 -62.77,-45.88l-0.01 -0.01z"/>
  </g>
 </g>
</svg>
